<svg width="721" height="831" viewBox="0 0 721 831" fill="none" xmlns="http://www.w3.org/2000/svg">
<path d="M488.622 81.25L455.078 65.4778L418.333 70.2889L434.1 36.75L429.289 0L462.828 15.7722L499.578 10.9556L483.806 44.5L488.622 81.25Z" fill="#E5EAE9"/>
<path d="M479.722 53.761C479.722 45.3277 470.422 38.4888 458.956 38.4888C447.489 38.4888 438.183 45.3277 438.183 53.761C438.183 61.6888 446.406 68.2054 456.917 68.961C461.689 73.861 470.383 77.8943 475.944 78.4777C471.717 75.6721 469.506 70.611 468.461 67.3277C475.144 64.7888 479.722 59.6721 479.722 53.761Z" fill="#FDF2DC"/>
<path d="M475.944 78.7556C470.694 78.2 461.911 74.4056 456.817 69.2278C446.044 68.4167 437.928 61.7833 437.928 53.7611C437.928 45.1889 447.372 38.2056 458.978 38.2056C470.583 38.2056 480.022 45.1833 480.022 53.7611C480.022 59.5445 475.739 64.7833 468.828 67.4945C469.972 71 472.161 75.6222 476.122 78.2445C476.229 78.3161 476.273 78.4517 476.228 78.5722C476.186 78.6903 476.069 78.7654 475.944 78.7556ZM458.956 38.7556C447.656 38.7556 438.461 45.4833 438.461 53.7556C438.461 61.5056 446.406 67.9222 456.933 68.6778C457.003 68.6822 457.068 68.7118 457.117 68.7611C461.772 73.5445 469.639 77.1389 474.894 78.0389C471.283 75.1945 469.278 70.7556 468.228 67.4056C468.183 67.2647 468.256 67.1133 468.394 67.0611C475.228 64.4667 479.478 59.3722 479.478 53.7556C479.444 45.4945 470.25 38.7667 458.956 38.7667V38.7556Z" fill="black"/>
<path d="M436.833 21.2278C422.544 21.2278 410.967 29.9389 410.967 40.6722C410.967 48.0889 416.478 54.5611 424.583 57.8167C423.1 61.45 420.611 65.7778 416.622 68.4167C422.061 67.8611 430.017 64.5278 435.85 60.1111C436.178 60.1111 436.506 60.1111 436.833 60.1111C451.122 60.1111 462.7 51.3945 462.7 40.6667C462.7 29.9389 451.122 21.2278 436.833 21.2278Z" fill="#FDF2DC"/>
<path d="M416.622 68.7056C416.504 68.7047 416.399 68.6321 416.356 68.5223C416.317 68.4021 416.362 68.2707 416.467 68.2001C420.417 65.5779 422.856 61.2445 424.244 57.9779C415.867 54.5056 410.689 47.8945 410.689 40.6723C410.689 29.7945 422.417 20.939 436.833 20.939C451.25 20.939 462.978 29.7945 462.978 40.6723C462.978 51.5501 451.25 60.4112 436.833 60.4112C436.589 60.4112 436.35 60.4112 436.111 60.4112H435.939C430.211 64.7056 422.289 68.1167 416.65 68.7112L416.622 68.7056ZM436.833 21.4834C422.722 21.4834 411.244 30.089 411.244 40.6612C411.244 47.7223 416.394 54.189 424.689 57.5445C424.757 57.5747 424.812 57.6278 424.844 57.6945C424.872 57.7641 424.872 57.8416 424.844 57.9112C423.567 61.0223 421.322 65.189 417.689 67.9834C423.161 67.1056 430.378 63.8779 435.683 59.8779C435.733 59.8414 435.794 59.8219 435.856 59.8223H436.128C436.361 59.8223 436.594 59.8223 436.833 59.8223C450.944 59.8223 462.422 51.2167 462.422 40.639C462.422 30.0612 450.944 21.5056 436.833 21.5056V21.4834Z" fill="black"/>
<path d="M426.861 40.6222C426.863 42.1197 425.963 43.4709 424.58 44.045C423.197 44.6191 421.604 44.3029 420.545 43.244C419.486 42.1851 419.17 40.5923 419.744 39.2092C420.318 37.8261 421.669 36.9255 423.167 36.9277C425.206 36.9308 426.858 38.5831 426.861 40.6222Z" fill="#329DFD"/>
<path d="M423.167 44.6C421.557 44.6022 420.105 43.6345 419.488 42.1483C418.87 40.662 419.209 38.9502 420.346 37.8114C421.484 36.6726 423.195 36.3313 424.682 36.9467C426.169 37.562 427.139 39.0128 427.139 40.6222C427.136 42.8156 425.36 44.5938 423.167 44.6ZM423.167 37.2055C421.782 37.2033 420.532 38.0362 420 39.3155C419.469 40.5948 419.762 42.0681 420.741 43.0476C421.721 44.0271 423.194 44.3195 424.473 43.7884C425.753 43.2573 426.586 42.0073 426.583 40.6222C426.577 38.7377 425.051 37.2116 423.167 37.2055Z" fill="#6A86EB"/>
<path d="M440.822 40.7111C440.824 42.2086 439.924 43.5598 438.541 44.1339C437.158 44.708 435.565 44.3918 434.506 43.3329C433.447 42.274 433.131 40.6812 433.705 39.2981C434.279 37.915 435.63 37.0144 437.128 37.0166C439.167 37.0197 440.819 38.6719 440.822 40.7111Z" fill="#6A86EB"/>
<path d="M437.128 44.6888C435.518 44.6911 434.066 43.7233 433.449 42.2371C432.831 40.7509 433.17 39.0391 434.308 37.9003C435.445 36.7615 437.156 36.4202 438.643 37.0355C440.13 37.6509 441.1 39.1017 441.1 40.711C441.1 42.9057 439.322 44.6858 437.128 44.6888ZM437.128 37.2944C435.743 37.2921 434.493 38.1251 433.962 39.4044C433.43 40.6837 433.723 42.157 434.702 43.1365C435.682 44.1159 437.155 44.4084 438.434 43.8773C439.714 43.3461 440.547 42.0962 440.544 40.711C440.544 38.8241 439.015 37.2944 437.128 37.2944Z" fill="black"/>
<path d="M454.8 40.711C454.802 42.2081 453.902 43.5589 452.52 44.1334C451.137 44.7078 449.545 44.3926 448.486 43.3349C447.426 42.2771 447.109 40.6852 447.681 39.302C448.253 37.9187 449.603 37.0166 451.1 37.0166C453.141 37.0166 454.797 38.6698 454.8 40.711Z" fill="#6A86EB"/>
<path d="M451.1 44.689C448.903 44.689 447.122 42.908 447.122 40.7112C447.122 38.5143 448.903 36.7334 451.1 36.7334C453.297 36.7334 455.078 38.5143 455.078 40.7112C455.078 42.908 453.297 44.689 451.1 44.689ZM451.1 37.2945C449.715 37.2945 448.467 38.1289 447.938 39.4084C447.408 40.6879 447.702 42.1603 448.682 43.1386C449.662 44.1169 451.135 44.4083 452.414 43.8769C453.692 43.3454 454.525 42.0958 454.522 40.7112C454.519 38.8233 452.988 37.2945 451.1 37.2945Z" fill="black"/>
<path d="M680.444 199.644C702.833 199.644 720.983 181.495 720.983 159.106C720.983 136.717 702.833 118.567 680.444 118.567C658.055 118.567 639.906 136.717 639.906 159.106C639.906 181.495 658.055 199.644 680.444 199.644Z" fill="#E5EAE9"/>
<path d="M699.456 153.8C697.853 153.768 696.34 154.534 695.417 155.844C695.146 156.221 694.709 156.443 694.244 156.439C693.646 156.438 693.11 156.069 692.894 155.511V141.939H679.8C679.201 141.873 678.703 141.447 678.545 140.866C678.387 140.285 678.6 139.666 679.083 139.305C680.39 138.368 681.151 136.847 681.117 135.239C680.898 132.486 678.6 130.364 675.839 130.364C673.078 130.364 670.78 132.486 670.561 135.239C670.525 136.847 671.286 138.369 672.594 139.305C673.084 139.664 673.301 140.286 673.141 140.871C672.98 141.456 672.476 141.88 671.872 141.939H658.789V154.95C658.789 155.759 659.441 156.416 660.25 156.422C660.714 156.425 661.151 156.204 661.422 155.828C662.351 154.521 663.864 153.756 665.467 153.783C668.335 153.876 670.611 156.228 670.611 159.097C670.611 161.967 668.335 164.318 665.467 164.411C663.865 164.44 662.351 163.677 661.422 162.372C661.044 161.864 660.382 161.657 659.783 161.86C659.183 162.062 658.782 162.628 658.789 163.261V176.255H671.872C672.476 176.314 672.98 176.739 673.141 177.323C673.301 177.908 673.084 178.531 672.594 178.889C671.285 179.827 670.524 181.351 670.561 182.961C670.78 185.714 673.078 187.836 675.839 187.836C678.6 187.836 680.898 185.714 681.117 182.961C681.151 181.352 680.39 179.829 679.083 178.889C678.6 178.528 678.387 177.91 678.545 177.328C678.703 176.747 679.201 176.321 679.8 176.255H692.911V162.728C693.122 162.171 693.649 161.797 694.244 161.783C694.709 161.783 695.145 162.006 695.417 162.383C696.343 163.689 697.855 164.45 699.456 164.417C702.32 164.324 704.595 161.975 704.595 159.108C704.595 156.242 702.32 153.893 699.456 153.8Z" fill="#FF6B6B"/>
<path d="M675.839 130.114C672.947 130.114 670.541 132.336 670.312 135.219C670.275 136.836 670.993 138.362 672.247 139.357L672.444 139.505C672.852 139.804 673.032 140.32 672.899 140.805C672.767 141.289 672.348 141.642 671.848 141.69L658.539 141.689V154.95C658.539 155.896 659.302 156.665 660.248 156.672C660.731 156.676 661.19 156.472 661.512 156.114L661.617 155.985C662.507 154.733 663.942 154.008 665.462 154.033C668.192 154.122 670.362 156.363 670.362 159.097C670.362 161.832 668.192 164.073 665.459 164.161C664.022 164.187 662.653 163.538 661.762 162.409L661.622 162.222C661.18 161.628 660.405 161.386 659.703 161.623C659 161.86 658.53 162.523 658.539 163.264V176.505H671.872C672.348 176.553 672.767 176.905 672.899 177.389C673.022 177.835 672.88 178.31 672.536 178.615L672.437 178.694C671.073 179.672 670.272 181.274 670.311 182.967C670.541 185.863 672.947 188.086 675.839 188.086C678.731 188.086 681.137 185.863 681.366 182.981C681.401 181.363 680.684 179.836 679.431 178.839L679.234 178.689C678.832 178.39 678.655 177.876 678.787 177.394C678.918 176.912 679.331 176.559 679.827 176.504L693.161 176.505V162.728C693.319 162.354 693.757 162.045 694.25 162.033C694.585 162.033 694.908 162.178 695.134 162.43L695.222 162.54C696.187 163.901 697.778 164.702 699.461 164.667C702.463 164.569 704.845 162.11 704.845 159.108C704.845 156.192 702.592 153.774 699.693 153.562L699.468 153.55L699.459 153.596L699.461 153.55C697.863 153.518 696.345 154.241 695.363 155.498L695.216 155.695C694.99 156.009 694.63 156.192 694.247 156.189C693.75 156.188 693.306 155.883 693.128 155.421L693.144 141.689H679.8C679.331 141.636 678.918 141.283 678.787 140.8C678.666 140.357 678.805 139.885 679.144 139.579L679.242 139.499C680.603 138.523 681.402 136.924 681.367 135.234C681.137 132.336 678.731 130.114 675.839 130.114ZM675.839 130.614C678.47 130.614 680.659 132.636 680.868 135.259C680.899 136.77 680.177 138.213 678.938 139.102L678.818 139.2C678.331 139.64 678.134 140.307 678.304 140.932L678.35 141.075C678.573 141.681 679.122 142.116 679.773 142.187L692.644 142.189L692.644 155.511C692.914 156.255 693.543 156.688 694.244 156.689C694.788 156.694 695.301 156.433 695.62 155.99L695.76 155.801L695.921 155.607C696.748 154.661 697.935 154.096 699.197 154.052L699.464 154.05L699.661 154.061C702.295 154.254 704.345 156.454 704.345 159.108C704.345 161.84 702.178 164.078 699.448 164.167C697.933 164.198 696.499 163.476 695.621 162.239L695.515 162.107C695.186 161.739 694.727 161.533 694.244 161.533L694.095 161.543C693.455 161.613 692.906 162.034 692.677 162.639L692.661 176.005L679.8 176.005C679.072 176.084 678.489 176.582 678.304 177.263C678.119 177.943 678.369 178.667 678.934 179.089L679.124 179.233C680.25 180.13 680.897 181.508 680.867 182.956C680.659 185.564 678.47 187.586 675.839 187.586C673.208 187.586 671.019 185.564 670.81 182.941C670.776 181.428 671.498 179.982 672.74 179.092L672.86 178.996C673.354 178.557 673.554 177.886 673.382 177.257L673.335 177.113C673.109 176.504 672.552 176.07 671.896 176.007L659.039 176.005V163.261C659.033 162.733 659.365 162.265 659.863 162.097C660.36 161.929 660.908 162.1 661.222 162.521L661.366 162.714C662.357 163.97 663.874 164.69 665.471 164.661C668.478 164.564 670.862 162.101 670.862 159.097C670.862 156.093 668.478 153.63 665.475 153.533C663.786 153.505 662.195 154.309 661.218 155.683L661.131 155.79C660.914 156.031 660.591 156.175 660.252 156.172L660.128 156.165C659.515 156.098 659.039 155.579 659.039 154.95V142.189L671.872 142.189C672.603 142.119 673.194 141.622 673.382 140.937C673.569 140.252 673.315 139.523 672.742 139.104L672.553 138.961C671.426 138.068 670.779 136.691 670.811 135.244C671.019 132.636 673.208 130.614 675.839 130.614Z" fill="black"/>
<path d="M45.4611 153.033L68.1889 192.406L90.9167 231.772H45.4611H0L22.7278 192.406L45.4611 153.033Z" fill="#E5EAE9"/>
<path d="M36.6944 199.639L62.0222 175.317C63.0613 174.316 64.7054 174.316 65.7444 175.317L91.0778 199.639L74.0611 234.278H53.1L36.6944 199.639Z" fill="#329DFD"/>
<path d="M74.0667 234.561H53.1C52.9938 234.561 52.8967 234.501 52.85 234.406L36.4667 199.761C36.4182 199.651 36.442 199.523 36.5278 199.439L61.8333 175.117C62.9804 174.01 64.7973 174.01 65.9444 175.117L91.2778 199.439C91.3636 199.526 91.3858 199.657 91.3333 199.767L74.3167 234.4C74.2726 234.499 74.1746 234.561 74.0667 234.561ZM53.2778 234.006H73.8944L90.7444 199.706L65.5556 175.522C64.6257 174.625 63.1521 174.625 62.2222 175.522L37.0222 199.706L53.2778 234.006Z" fill="black"/>
<path d="M45.9056 178.817H75.7444L81.8722 184.167V224.367H45.9056V178.817Z" fill="#FDF2DC"/>
<path d="M81.8722 224.644H45.9111C45.7577 224.644 45.6333 224.52 45.6333 224.367V178.811C45.6333 178.658 45.7577 178.533 45.9111 178.533H75.7444C75.8122 178.535 75.8773 178.56 75.9278 178.606L82.0389 183.95C82.101 184.003 82.1375 184.08 82.1389 184.161V224.361C82.1389 224.511 82.0222 224.636 81.8722 224.644ZM46.1833 224.089H81.5944V184.289L75.6389 179.094H46.1944L46.1833 224.089Z" fill="black"/>
<path d="M75.7444 184.167H81.8722L75.7444 178.817V184.167Z" fill="#FDF2DC"/>
<path d="M81.8722 184.445H75.7611C75.6077 184.445 75.4833 184.32 75.4833 184.167V178.817C75.4827 178.709 75.5459 178.611 75.6444 178.567C75.7446 178.522 75.8615 178.54 75.9444 178.611L82.0556 183.956C82.1454 184.03 82.1768 184.153 82.1333 184.261C82.095 184.372 81.9897 184.446 81.8722 184.445ZM76.0222 183.889H81.1278L76.0222 179.444V183.889Z" fill="black"/>
<path d="M65.75 223.967C64.7109 224.967 63.0669 224.967 62.0278 223.967L36.6944 199.639V238.939H91.0833V199.639L65.75 223.967Z" fill="#329DFD"/>
<path d="M91.0833 239.217H36.6944C36.541 239.217 36.4167 239.092 36.4167 238.939V199.639C36.4177 199.528 36.4827 199.429 36.5833 199.383C36.6859 199.345 36.8015 199.366 36.8833 199.439L62.2167 223.767C63.1477 224.661 64.619 224.661 65.55 223.767L90.9111 199.439C90.9953 199.366 91.1123 199.345 91.2167 199.383C91.3173 199.429 91.3823 199.528 91.3833 199.639V238.939C91.3833 239.017 91.3513 239.091 91.2943 239.144C91.2373 239.196 91.1608 239.223 91.0833 239.217ZM36.9722 238.661H90.8056V200.294L65.9444 224.183C64.7973 225.29 62.9804 225.29 61.8333 224.183L36.9722 200.294V238.661Z" fill="black"/>
<path d="M91.0833 238.939H36.6944L56.7389 224.644C61.0174 221.6 66.7548 221.6 71.0333 224.644L91.0833 238.939Z" fill="#329DFD"/>
<path d="M91.0833 239.217H36.6944C36.5725 239.217 36.4644 239.139 36.4278 239.022C36.3894 238.907 36.4325 238.78 36.5333 238.711L56.5778 224.417C60.9517 221.3 66.8206 221.3 71.1944 224.417L91.2444 238.711C91.3442 238.781 91.3871 238.907 91.3501 239.023C91.3132 239.139 91.205 239.218 91.0833 239.217ZM37.5611 238.661H90.2167L70.8722 224.872C66.6923 221.89 61.0799 221.89 56.9 224.872L37.5611 238.661Z" fill="black"/>
<path d="M155.978 84.9385L198.426 11.4177L271.946 53.865L229.499 127.386L155.978 84.9385Z" fill="#E5EAE9"/>
<path d="M253.589 105.617H188.717C188.565 105.614 188.442 105.491 188.439 105.339V37.0056C188.439 36.8521 188.563 36.7278 188.717 36.7278C188.87 36.7278 188.994 36.8521 188.994 37.0056V105.061H253.589C253.742 105.061 253.867 105.185 253.867 105.339C253.867 105.492 253.742 105.617 253.589 105.617Z" fill="black"/>
<path d="M205.544 77.1555H195.478V98.2333H205.544V77.1555Z" fill="#FF6B6B"/>
<path d="M205.544 98.5113H195.478C195.326 98.5083 195.203 98.3857 195.2 98.2335V77.1557C195.203 77.0035 195.326 76.8809 195.478 76.8779H205.544C205.698 76.8779 205.822 77.0023 205.822 77.1557V98.2335C205.822 98.3072 205.793 98.3778 205.741 98.4299C205.689 98.482 205.618 98.5113 205.544 98.5113ZM195.756 97.9557H205.267V77.4335H195.756V97.9557Z" fill="black"/>
<path d="M221.217 82.7778H211.144V98.2278H221.217V82.7778Z" fill="#FF6B6B"/>
<path d="M221.217 98.5111H211.144C210.991 98.5111 210.867 98.3867 210.867 98.2333V82.7778C210.867 82.6244 210.991 82.5 211.144 82.5H221.217C221.37 82.5 221.494 82.6244 221.494 82.7778V98.2333C221.494 98.3867 221.37 98.5111 221.217 98.5111ZM211.422 97.9556H220.939V83.0556H211.422V97.9556Z" fill="black"/>
<path d="M236.889 74.3445H226.817V98.2278H236.889V74.3445Z" fill="#FF6B6B"/>
<path d="M236.883 98.5111H226.811C226.659 98.5081 226.536 98.3855 226.533 98.2333V74.3444C226.536 74.1923 226.659 74.0696 226.811 74.0667H236.883C237.037 74.0667 237.161 74.191 237.161 74.3444V98.2333C237.161 98.3867 237.037 98.5111 236.883 98.5111ZM227.089 97.9555H236.606V74.6222H227.089V97.9555Z" fill="black"/>
<path d="M252.55 65.9167H242.478V98.2334H252.55V65.9167Z" fill="#FF6B6B"/>
<path d="M252.578 98.5111H242.478C242.326 98.5082 242.203 98.3855 242.2 98.2334V65.9167C242.2 65.7633 242.324 65.6389 242.478 65.6389H252.578C252.731 65.6389 252.856 65.7633 252.856 65.9167V98.2334C252.856 98.3868 252.731 98.5111 252.578 98.5111ZM242.783 97.9556H252.3V66.1945H242.756L242.783 97.9556Z" fill="black"/>
<path d="M238.061 57.0389L245.433 39.2278L227.622 46.5944L238.061 57.0389Z" fill="#FCDA69"/>
<path d="M238.061 57.3389C237.988 57.3373 237.918 57.3074 237.867 57.2556L227.428 46.7834C227.363 46.7177 227.334 46.6244 227.35 46.5334C227.371 46.4427 227.432 46.3668 227.517 46.3278L245.356 38.9723C245.458 38.9257 245.579 38.9504 245.656 39.0334C245.736 39.1114 245.76 39.2303 245.717 39.3334L238.344 57.1445C238.308 57.2286 238.234 57.2905 238.144 57.3112L238.061 57.3389ZM228.133 46.6945L237.983 56.5445L244.939 39.7389L228.133 46.6945Z" fill="black"/>
<path d="M194.244 69.6835C194.171 69.6831 194.101 69.653 194.05 69.6002C193.997 69.548 193.968 69.477 193.968 69.403C193.968 69.3289 193.997 69.2579 194.05 69.2057L207.261 55.9946C207.369 55.8888 207.542 55.8888 207.65 55.9946L217.772 66.1224L232.022 51.8668C232.131 51.7579 232.308 51.7579 232.417 51.8668C232.526 51.9758 232.526 52.1524 232.417 52.2613L217.972 66.7057C217.918 66.7564 217.846 66.7842 217.772 66.7835C217.7 66.784 217.63 66.756 217.578 66.7057L207.456 56.578L194.444 69.5946C194.392 69.6498 194.32 69.6819 194.244 69.6835Z" fill="black"/>
<path d="M366.467 676.083C515.504 676.083 636.322 555.265 636.322 406.228C636.322 257.191 515.504 136.372 366.467 136.372C217.43 136.372 96.6111 257.191 96.6111 406.228C96.6111 555.265 217.43 676.083 366.467 676.083Z" fill="black" fill-opacity="0.76"/>
<path d="M447.022 244.561C447.022 244.561 431.1 174.261 417.789 135.911C404.478 97.5612 426.228 91.7057 440.956 110.856C455.683 130.006 496.078 213.883 499.417 227.395C502.756 240.906 498.822 251.372 498.822 251.372C498.822 251.372 448.133 249.378 447.022 244.561Z" fill="#FFEFD7"/>
<path d="M498.794 251.633C493.589 251.428 447.867 249.506 446.739 244.606C446.578 243.9 430.661 173.883 417.511 135.989C408.333 109.539 416.728 102.572 419.517 101.067C425.544 97.8168 434.239 101.672 441.183 110.672C455.489 129.272 496.3 213.595 499.689 227.339C503.022 240.778 499.133 251.378 499.089 251.483C499.034 251.593 498.915 251.654 498.794 251.633ZM447.267 244.478C448.044 247.861 478.311 250.272 498.6 251.072C499.1 249.6 502.156 239.733 499.117 227.445C495.733 213.75 454.994 129.578 440.711 111.011C434.044 102.372 425.456 98.489 419.767 101.567C412.583 105.456 411.928 118.233 418.028 135.817C431.183 173.728 447.094 243.728 447.267 244.489V244.478Z" fill="black"/>
<g opacity="0.16">
<path d="M444.356 233.189C444.356 233.189 453.344 242.633 454.094 247.372C454.094 247.372 447.933 248.611 446.994 244.544L444.356 233.189Z" fill="black"/>
</g>
<path d="M120.778 739.956C120.778 739.956 111.128 782.978 156.6 806.744C202.072 830.511 232.911 787.489 232.911 787.489C232.911 787.489 204.378 677.456 120.778 739.956Z" fill="black"/>
<path d="M183.861 814.133C175.6 814.133 166.389 812.178 156.467 806.989C132.889 794.661 124.367 777.078 121.367 764.5C118.122 750.867 120.483 740 120.511 739.894C120.523 739.83 120.559 739.773 120.611 739.733C144.128 722.15 165.544 716.567 184.256 723.139C202.589 729.578 214.928 746.717 222.033 759.967C226.711 768.696 230.447 777.897 233.178 787.417C233.199 787.497 233.183 787.583 233.133 787.65C227.306 795.137 220.114 801.453 211.939 806.267C204.828 810.406 195.25 814.133 183.861 814.133ZM121.028 740.117C119.676 748.188 119.978 756.449 121.917 764.4C124.889 776.861 133.344 794.278 156.728 806.506C180.111 818.733 199.506 812.867 211.65 805.806C219.724 801.046 226.834 794.814 232.611 787.433C229.89 777.995 226.18 768.871 221.544 760.211C214.478 747.056 202.244 730.033 184.072 723.656C165.561 717.167 144.356 722.7 121.028 740.117Z" fill="black"/>
<path d="M490.483 384.844L518.589 404.194C518.589 404.194 596.65 372.833 602.383 384.844C608.117 396.855 535.55 453.083 504.156 442.428C472.761 431.772 449.889 417.944 449.889 417.944L490.483 384.844Z" fill="#FFEFD7"/>
<path d="M513.044 444.039C509.998 444.085 506.965 443.629 504.067 442.689C473 432.133 449.972 418.322 449.744 418.183C449.668 418.137 449.619 418.056 449.612 417.967C449.606 417.878 449.643 417.791 449.711 417.733L490.311 384.628C490.409 384.552 490.546 384.552 490.644 384.628L518.622 403.894C523.4 401.978 596.922 372.783 602.633 384.739C604.256 388.133 599.939 394.083 596.033 398.483C580.3 416.183 539.3 444.039 513.044 444.039ZM450.356 417.894C453.317 419.644 475.272 432.339 504.244 442.15C528.744 450.483 578.022 417.889 595.617 398.083C600.978 392.05 603.294 387.383 602.133 384.95C596.578 373.283 519.472 404.122 518.694 404.433C518.614 404.481 518.514 404.481 518.433 404.433L490.5 385.205L450.356 417.894Z" fill="black"/>
<path d="M582.089 385.433C582.089 385.433 588.833 367.994 595.361 366.933C596.012 366.823 596.678 367.007 597.179 367.436C597.68 367.866 597.965 368.496 597.956 369.156C597.856 372.2 593.739 376.522 598.261 380.428C603.978 385.367 621.839 376.178 622.961 379.389C624.083 382.6 608.9 387.228 608.9 387.228C608.9 387.228 621.678 383.039 622.789 384.45C624.094 386.189 621.233 388.083 609.222 391.328C609.222 391.328 619.811 391.278 620.189 392.439C620.789 394.333 609.983 399.061 592.317 401.211" fill="#FFEFD7"/>
<path d="M592.306 401.506C592.152 401.515 592.02 401.398 592.011 401.244C592.002 401.091 592.119 400.959 592.272 400.95C608.106 399.022 618.439 395.044 619.806 392.917C619.892 392.811 619.93 392.674 619.911 392.539C619.578 391.928 614.1 391.572 609.211 391.594C609.058 391.614 608.917 391.506 608.897 391.353C608.877 391.199 608.985 391.059 609.139 391.039C617.928 388.667 622.256 386.889 622.75 385.45C622.843 385.151 622.768 384.824 622.556 384.594C622 383.861 616.167 385.194 610.383 387.006C609.6 387.267 609.083 387.422 608.983 387.456C608.838 387.499 608.684 387.417 608.639 387.272C608.595 387.127 608.673 386.972 608.817 386.922L609.728 386.633C612.6 385.7 621.356 382.672 622.611 380.194C622.746 379.969 622.779 379.696 622.7 379.444C622.306 378.333 618.628 379.239 614.728 380.211C608.822 381.689 601.472 383.544 598.061 380.6C594.65 377.656 595.911 374.544 596.861 372C597.27 371.083 597.538 370.109 597.656 369.111C597.672 368.557 597.44 368.025 597.022 367.661C596.568 367.258 595.953 367.086 595.356 367.194C589.056 368.217 582.361 385.339 582.294 385.528C582.232 385.659 582.079 385.72 581.943 385.668C581.808 385.615 581.735 385.467 581.778 385.328C582.056 384.606 588.656 367.728 595.267 366.656C596.019 366.532 596.788 366.752 597.361 367.256C597.902 367.729 598.204 368.42 598.183 369.139C598.069 370.198 597.789 371.233 597.356 372.206C596.417 374.717 595.35 377.561 598.394 380.189C601.567 382.933 608.761 381.133 614.544 379.683C619.228 378.511 622.611 377.661 623.178 379.272C623.305 379.666 623.26 380.096 623.056 380.456C622.322 381.9 619.428 383.455 616.439 384.733C621.544 383.478 622.611 383.822 622.95 384.272C623.276 384.65 623.379 385.171 623.222 385.644C622.667 387.194 619.061 388.833 611.189 391.05C614.828 391.094 620.078 391.339 620.389 392.367C620.467 392.66 620.405 392.974 620.222 393.217C619.444 394.428 616.25 395.994 611.678 397.489C605.354 399.426 598.863 400.769 592.289 401.5L592.306 401.506Z" fill="black"/>
<path d="M593.9 368.861C593.9 368.861 596.378 367.194 596.239 369.894Z" fill="#F9769A"/>
<path d="M596.239 370.172C596.166 370.169 596.097 370.137 596.047 370.083C595.998 370.028 595.973 369.956 595.978 369.883C595.978 369.439 595.978 368.872 595.639 368.694C595.206 368.444 594.339 368.905 594.072 369.089C593.945 369.175 593.772 369.141 593.686 369.014C593.6 368.887 593.634 368.714 593.761 368.628C593.894 368.539 595.1 367.75 595.911 368.205C596.367 368.467 596.578 369.039 596.533 369.911C596.529 369.985 596.496 370.054 596.44 370.103C596.385 370.152 596.313 370.177 596.239 370.172Z" fill="black"/>
<path d="M620.939 379.639C620.939 379.639 622.422 379.794 621.461 380.867Z" fill="#F9769A"/>
<path d="M621.467 381.144C621.398 381.146 621.332 381.12 621.283 381.072C621.231 381.02 621.201 380.949 621.201 380.875C621.201 380.801 621.231 380.73 621.283 380.678C621.472 380.467 621.567 380.283 621.528 380.183C621.489 380.083 621.15 379.939 620.939 379.917C620.84 379.907 620.753 379.845 620.712 379.754C620.671 379.663 620.682 379.557 620.74 379.476C620.798 379.395 620.895 379.351 620.994 379.361C621.083 379.361 621.844 379.461 622.044 379.978C622.146 380.371 622.01 380.788 621.694 381.044C621.638 381.112 621.554 381.149 621.467 381.144Z" fill="black"/>
<path d="M621.372 385.011C621.372 385.011 622.339 385.2 621.85 386.017Z" fill="#F9769A"/>
<path d="M621.85 386.294C621.801 386.292 621.754 386.279 621.711 386.256C621.579 386.176 621.535 386.006 621.611 385.872C621.691 385.772 621.721 385.642 621.694 385.517C621.639 385.389 621.417 385.306 621.317 385.283C621.244 385.269 621.181 385.226 621.14 385.164C621.1 385.103 621.085 385.028 621.1 384.956C621.131 384.808 621.274 384.712 621.422 384.739C621.752 384.797 622.038 385.002 622.2 385.294C622.314 385.583 622.272 385.91 622.089 386.161C622.038 386.244 621.947 386.295 621.85 386.294Z" fill="black"/>
<path d="M619.633 389.422C619.633 389.422 619.944 389.85 619.15 390.411Z" fill="#F9769A"/>
<path d="M619.15 390.672C619.059 390.67 618.975 390.624 618.922 390.55C618.837 390.424 618.87 390.253 618.994 390.167C619.417 389.867 619.444 389.611 619.4 389.555C619.357 389.496 619.34 389.422 619.353 389.35C619.365 389.278 619.406 389.214 619.467 389.172C619.593 389.086 619.765 389.115 619.856 389.239C619.956 389.393 619.994 389.58 619.961 389.761C619.866 390.123 619.633 390.432 619.311 390.622C619.264 390.654 619.207 390.672 619.15 390.672Z" fill="black"/>
<path d="M161.089 709.194L128.156 809.028L143.122 821.233L214.7 729.678L161.089 709.194Z" fill="#FFEFD7"/>
<path d="M143.133 821.511C143.071 821.511 143.01 821.489 142.961 821.45L127.989 809.228C127.901 809.153 127.866 809.033 127.9 808.922L160.839 709.089C160.863 709.018 160.915 708.96 160.983 708.928C161.052 708.897 161.131 708.897 161.2 708.928L214.811 729.411C214.893 729.443 214.956 729.511 214.983 729.594C215.006 729.681 214.988 729.773 214.933 729.844L143.356 821.4C143.308 821.457 143.24 821.495 143.167 821.506L143.133 821.511ZM128.489 808.933L143.089 820.839L214.244 729.8L161.261 709.561L128.489 808.933Z" fill="black"/>
<g opacity="0.16">
<path d="M161.089 709.194L197.961 751.089L214.7 729.678L161.089 709.194Z" fill="black"/>
<path d="M197.961 751.367C197.882 751.367 197.807 751.333 197.756 751.272L160.911 709.378C160.826 709.282 160.817 709.141 160.89 709.036C160.962 708.931 161.097 708.888 161.217 708.933L214.828 729.417C214.91 729.449 214.973 729.516 215 729.6C215.023 729.687 215.005 729.779 214.95 729.85L198.211 751.261C198.162 751.328 198.083 751.367 198 751.367H197.961ZM162.022 709.856L197.95 750.672L214.244 729.8L162.022 709.856Z" fill="black"/>
</g>
<path d="M271.95 457.772C271.864 457.771 271.783 457.733 271.728 457.667C271.634 457.545 271.657 457.372 271.778 457.278L277.272 452.983C277.351 452.922 277.456 452.907 277.548 452.944C277.641 452.981 277.707 453.065 277.721 453.163C277.735 453.262 277.695 453.361 277.617 453.422L272.117 457.711C272.07 457.751 272.011 457.773 271.95 457.772Z" fill="black"/>
<path d="M498.133 313.25L574.461 313.972C574.461 313.972 638.728 198.506 655.428 207.222C672.128 215.939 624.872 334.728 609.078 349.211C593.283 363.694 495.356 362.544 495.356 362.544L498.133 313.25Z" fill="#FFEFD7"/>
<path d="M500.072 362.861C497.122 362.861 495.411 362.861 495.35 362.861C495.274 362.861 495.201 362.829 495.15 362.772C495.099 362.716 495.073 362.642 495.077 362.567L497.856 313.256C497.876 313.112 497.995 313.003 498.139 312.994L574.3 313.717C577.906 307.25 638.967 198.339 655.561 207C657.389 207.956 658.55 210.194 659.006 213.667C660.572 225.589 653.75 252.922 640.761 286.783C628.994 317.467 616.044 343.233 609.267 349.45C602.672 355.5 581.489 359.594 546.311 361.628C526.956 362.711 508.478 362.861 500.072 362.861ZM495.628 362.306C498.472 362.306 521.656 362.478 546.267 361.056C580.817 359.061 602.467 354.9 608.872 349.022C615.594 342.861 628.489 317.178 640.228 286.567C653.183 252.789 659.994 225.556 658.439 213.722C658.006 210.45 656.944 208.35 655.283 207.483C639.044 199.006 575.356 312.956 574.706 314.106C574.654 314.192 574.562 314.247 574.461 314.25L498.4 313.533L495.628 362.306Z" fill="black"/>
<path d="M575.961 321.144C575.83 321.144 575.718 321.051 575.694 320.922L574.194 314.028C574.174 313.928 574.207 313.826 574.283 313.758C574.358 313.69 574.464 313.668 574.561 313.7C574.657 313.731 574.729 313.812 574.75 313.911L576.25 320.805C576.267 320.877 576.253 320.952 576.214 321.014C576.174 321.076 576.111 321.119 576.039 321.133L575.961 321.144Z" fill="black"/>
<path d="M397.967 310.561L447.022 244.561C447.022 244.561 481.917 243.4 498.822 251.372L475 312.483L397.967 310.561Z" fill="#6A86EB"/>
<path d="M474.972 312.756L397.956 310.839C397.853 310.833 397.761 310.771 397.717 310.678C397.664 310.591 397.664 310.481 397.717 310.394L446.75 244.378C446.801 244.309 446.881 244.268 446.967 244.267C447.056 244.267 455.856 243.983 466.55 244.683C476.461 245.328 490.117 246.967 498.894 251.106C499.023 251.17 499.082 251.321 499.033 251.456L475.206 312.567C475.173 312.671 475.081 312.745 474.972 312.756ZM398.506 310.294L474.783 312.2L498.444 251.5C489.739 247.478 476.317 245.872 466.544 245.239C456.544 244.583 448.278 244.783 447.139 244.817L398.506 310.294Z" fill="black"/>
<path d="M350.05 311.783C350.05 311.783 294.128 276.711 289.2 274.178C289.2 274.178 257.889 293.194 255.811 315.094L295.422 340.911C295.422 340.911 350.056 319.561 350.05 311.783Z" fill="#6A86EB"/>
<path d="M295.422 341.228C295.367 341.227 295.314 341.211 295.267 341.183L255.661 315.339C255.575 315.281 255.528 315.181 255.539 315.078C257.6 293.289 288.744 274.139 289.056 273.967C289.14 273.919 289.243 273.919 289.328 273.967C294.206 276.483 349.639 311.239 350.194 311.589C350.277 311.638 350.328 311.726 350.328 311.822C350.328 319.683 297.761 340.333 295.522 341.206C295.491 341.221 295.457 341.228 295.422 341.228ZM256.106 314.994L295.45 340.639C314.167 333.311 349.194 318.05 349.767 311.972C346.694 310.05 294.767 277.494 289.211 274.533C287.022 275.894 258.211 294.244 256.106 314.967V314.994Z" fill="black"/>
<path d="M255.811 315.117C255.811 315.117 204.583 281.289 208.383 266.533C212.183 251.778 265.406 141.417 286.317 161.55C293.283 168.261 257.983 240.139 260.728 250.133C263.472 260.128 289.2 274.189 289.2 274.189L255.811 315.117Z" fill="#FFEFD7"/>
<path d="M255.817 315.383C255.762 315.383 255.708 315.368 255.661 315.339C253.561 313.95 204.306 281.228 208.117 266.45C211.661 252.7 253.422 166.089 277.517 159.261C281.022 158.272 284.044 158.972 286.511 161.35C290.456 165.144 281.694 188.128 273.222 210.356C266.311 228.489 259.783 245.622 261 250.061C263.661 259.833 289.083 273.806 289.333 273.95C289.405 273.99 289.455 274.059 289.472 274.139C289.489 274.219 289.469 274.303 289.417 274.367L256.028 315.289C255.975 315.35 255.898 315.383 255.817 315.383ZM280.456 159.383C279.515 159.392 278.58 159.532 277.678 159.8C264.089 163.644 245.356 193.45 235.417 210.861C221.622 235.011 210.35 260 208.656 266.589C205.067 280.511 252.189 312.35 255.756 314.733L288.778 274.272C285.772 272.606 263.056 259.744 260.444 250.211C259.189 245.589 265.75 228.378 272.694 210.161C280.706 189.128 289.794 165.294 286.111 161.75C284.619 160.236 282.581 159.383 280.456 159.383Z" fill="black"/>
<path d="M289.956 348.672C289.956 348.672 235.156 356.156 212.111 363.617C212.111 363.617 209.75 389.872 216 411.839L264.856 410.172L289.956 348.672Z" fill="#6A86EB"/>
<path d="M216.017 412.117C215.892 412.116 215.783 412.032 215.75 411.911C209.539 390.15 211.811 363.85 211.861 363.578C211.868 363.467 211.943 363.371 212.05 363.339C234.828 355.961 289.394 348.461 289.939 348.383C290.038 348.371 290.137 348.411 290.2 348.489C290.26 348.569 290.273 348.675 290.233 348.767L265.133 410.294C265.089 410.395 264.993 410.461 264.883 410.467L216.028 412.133L216.017 412.117ZM212.372 363.822C212.183 366.189 210.389 390.889 216.228 411.55L264.683 409.917L289.517 349.006C284.083 349.772 234.089 356.844 212.372 363.822Z" fill="black"/>
<path d="M212.111 363.617C212.111 363.617 169.8 373.194 158.383 377.339C158.383 377.339 96.3833 278.344 77.7056 295.278C68.5833 303.55 117.678 398.133 132.117 412.556C146.556 426.978 216.006 411.844 216.006 411.844L212.111 363.617Z" fill="#FFEFD7"/>
<path d="M159.244 419.1C147.211 419.1 136.706 417.494 131.95 412.744C118.489 399.305 75.8722 318.1 76.3389 298.761C76.3778 297 76.7833 295.756 77.5444 295.067C79.3611 293.4 81.6556 292.778 84.3667 293.15C94.2167 294.511 109.717 309.072 130.433 336.433C145.039 355.722 157.2 374.894 158.528 376.989C170.144 372.85 211.661 363.433 212.078 363.339C212.157 363.322 212.239 363.339 212.306 363.383C212.372 363.432 212.412 363.507 212.417 363.589L216.306 411.811C216.315 411.949 216.223 412.073 216.089 412.105C214.172 412.522 183.567 419.1 159.244 419.1ZM82.8889 293.606C81.0443 293.568 79.2552 294.238 77.8889 295.478C77.25 296.061 76.9056 297.144 76.8667 298.772C76.6611 307.233 85.1 329.283 99.4389 357.761C112.417 383.533 125.939 405.983 132.311 412.35C139.694 419.722 162.022 419.122 179.45 417.35C197.183 415.522 213.572 412.1 215.722 411.644L211.861 363.983C207.972 364.872 169.244 373.722 158.478 377.622C158.355 377.665 158.218 377.616 158.15 377.506C157.644 376.706 107.439 296.95 84.2611 293.728C83.8071 293.655 83.3486 293.614 82.8889 293.606Z" fill="black"/>
<path d="M154.8 386.6C154.767 386.608 154.733 386.608 154.7 386.6C154.631 386.573 154.577 386.519 154.547 386.452C154.518 386.384 154.517 386.307 154.544 386.239L158.133 377.228C158.192 377.087 158.352 377.018 158.494 377.072C158.635 377.131 158.704 377.291 158.65 377.433L155.078 386.422C155.033 386.535 154.921 386.606 154.8 386.6Z" fill="black"/>
<path d="M446.733 354.128L490.483 384.844C490.483 384.844 458.7 411.839 449.889 417.944L398.222 378.65C398.222 378.65 429.5 350.117 446.733 354.128Z" fill="#6A86EB"/>
<path d="M449.889 418.222C449.827 418.223 449.766 418.204 449.717 418.167L398.05 378.867C397.983 378.819 397.944 378.743 397.944 378.661C397.939 378.579 397.972 378.499 398.033 378.444C403.658 373.454 409.612 368.847 415.856 364.656C421.667 360.8 427.022 357.889 431.778 356.017C437.756 353.656 442.806 352.933 446.778 353.856C446.814 353.863 446.848 353.879 446.878 353.9L490.628 384.617C490.698 384.667 490.741 384.747 490.745 384.833C490.748 384.918 490.713 384.999 490.65 385.056C490.328 385.328 458.75 412.133 450.028 418.178C449.985 418.203 449.938 418.218 449.889 418.222ZM398.689 378.628L449.922 417.606C458.4 411.672 486.944 387.506 490.061 384.867L446.644 354.383C430.522 350.722 401.644 375.972 398.689 378.628Z" fill="black"/>
<path d="M291.189 488.683L120.783 739.956C204.378 677.456 232.911 787.489 232.911 787.489L391.083 480.328L291.189 488.683Z" fill="#111830"/>
<path d="M232.911 787.767H232.883C232.768 787.756 232.672 787.673 232.644 787.561C229.922 778.08 226.197 768.915 221.533 760.222C208.756 736.383 194.089 727.189 184.061 723.667C165.528 717.167 144.289 722.722 120.933 740.183C120.83 740.269 120.681 740.269 120.578 740.183C120.478 740.091 120.461 739.939 120.539 739.828L290.944 488.556C290.992 488.484 291.07 488.439 291.156 488.433L391.05 480.099C391.149 480.093 391.245 480.14 391.3 480.222C391.349 480.31 391.349 480.418 391.3 480.506L233.133 787.661C233.079 787.728 232.997 787.767 232.911 787.767ZM168.467 720.472C173.841 720.459 179.178 721.36 184.25 723.139C194.378 726.689 209.15 735.967 222.028 759.961C226.578 768.489 230.248 777.457 232.983 786.728L390.606 480.672L291.344 488.972L121.9 738.789C138.578 726.589 154.167 720.472 168.472 720.472H168.467Z" fill="black"/>
<path d="M376.978 481.483C376.978 481.483 554.9 412.772 555.797 498.183C556.689 583.594 300.85 655.556 300.85 655.556L376.978 481.483Z" fill="#111830"/>
<path d="M300.85 655.833C300.77 655.833 300.693 655.798 300.639 655.739C300.572 655.657 300.552 655.543 300.594 655.444L376.706 481.372C376.733 481.303 376.79 481.25 376.861 481.228C398.048 473.375 419.737 466.951 441.783 462C462.228 457.506 480.378 455.172 495.717 455.078C514.906 454.956 529.767 458.356 539.839 465.183C550.444 472.406 555.9 483.478 556.058 498.178C556.261 517.75 542.95 538.222 516.489 559.022C495.378 575.633 465.844 592.5 428.756 609.15C365.617 637.483 301.533 655.644 300.911 655.817C300.892 655.825 300.871 655.831 300.85 655.833ZM377.183 481.7L301.339 655.117C307.828 653.256 368.611 635.544 428.561 608.633C465.606 592 495.089 575.156 516.178 558.572C542.489 537.889 555.728 517.567 555.53 498.172C555.372 483.667 549.972 472.717 539.556 465.633C516.933 450.294 474 455.483 441.933 462.533C419.948 467.476 398.317 473.879 377.183 481.7Z" fill="black"/>
<path d="M336.206 574.994C336.052 575.028 335.9 574.931 335.867 574.778C335.833 574.624 335.93 574.473 336.083 574.439L454.178 517.978C454.313 517.934 454.459 517.996 454.521 518.124C454.583 518.251 454.54 518.405 454.422 518.483L336.322 574.967C336.287 574.986 336.246 574.996 336.206 574.994Z" fill="black"/>
<path d="M361.928 308.561L385.494 310.289C385.494 310.289 466.639 311.994 498.133 313.25C498.133 313.25 506.072 328.117 495.356 362.561L425.556 368.572C425.556 368.572 447.622 467.333 442.117 474.761C436.611 482.189 403.467 497.661 367.828 502.011C332.189 506.361 291.161 488.678 291.161 488.678L310.606 399.517L289.633 432.433C289.633 432.433 245.411 416.572 242.267 406.228C242.267 406.228 277.244 328.289 361.928 308.561Z" fill="#6A86EB"/>
<path d="M356.106 502.967C324.039 502.967 291.444 489.078 291.078 488.939C290.956 488.884 290.889 488.753 290.917 488.622L310.028 400.983L289.867 432.583C289.798 432.694 289.661 432.741 289.539 432.694C289.428 432.656 278.344 428.667 267.011 423.461C251.744 416.45 243.328 410.683 242.011 406.317C241.986 406.254 241.986 406.185 242.011 406.122C242.1 405.928 250.994 386.344 270.133 364.611C287.794 344.55 318.05 318.5 361.861 308.289C361.889 308.285 361.917 308.285 361.944 308.289L385.517 310.017C386.311 310.017 467.006 311.739 498.144 312.978C498.245 312.983 498.335 313.04 498.383 313.128C498.461 313.278 506.25 328.489 495.606 362.65C495.574 362.758 495.479 362.835 495.367 362.844L425.911 368.822C427.506 375.972 447.772 467.617 442.356 474.933C437.1 482.022 404.839 497.789 367.878 502.294C363.971 502.757 360.04 502.981 356.106 502.967ZM291.511 488.522C294.739 489.872 333.944 505.867 367.794 501.739C404.606 497.25 436.683 481.617 441.889 474.6C447.261 467.378 425.506 369.628 425.283 368.639C425.266 368.561 425.284 368.48 425.333 368.417C425.378 368.349 425.452 368.306 425.533 368.3L495.144 362.306C500.606 344.683 501.067 332.333 500.489 325.083C499.933 318.039 498.311 314.294 497.961 313.544C466.706 312.306 386.294 310.606 385.489 310.589L361.95 308.861C318.306 319.039 288.167 344.972 270.561 364.972C252.161 385.861 243.256 404.75 242.561 406.256C245.767 415.989 286.233 430.906 289.522 432.1L310.394 399.378C310.469 399.267 310.61 399.224 310.733 399.272C310.86 399.321 310.931 399.457 310.9 399.589L291.511 488.522Z" fill="black"/>
<g opacity="0.16">
<path d="M310.628 399.522L306.806 448.956L298.922 453.206L299.906 448.706L310.628 399.522Z" fill="black"/>
</g>
<path d="M365.6 287.956C365.6 287.956 366.711 304.322 361.928 308.561C361.928 308.561 371.289 320.728 385.494 310.289C385.494 310.289 380.656 300.467 380.056 288.739C380.056 288.739 372.639 281.583 365.6 287.956Z" fill="#FFEFD7"/>
<path d="M374.178 314.772C366.483 314.772 361.772 308.817 361.706 308.728C361.617 308.611 361.634 308.446 361.744 308.35C366.361 304.25 365.333 288.139 365.322 287.978C365.317 287.893 365.35 287.809 365.411 287.75C372.561 281.278 380.172 288.467 380.25 288.539C380.299 288.588 380.329 288.653 380.333 288.722C380.922 300.261 385.694 310.067 385.744 310.167C385.803 310.287 385.768 310.431 385.661 310.511C381.367 313.667 377.494 314.772 374.178 314.772ZM362.306 308.583C363.606 310.144 372.256 319.528 385.144 310.2C384.45 308.706 380.356 299.528 379.783 288.867C378.476 287.718 376.97 286.818 375.339 286.211C371.861 284.956 368.672 285.583 365.894 288.072C365.989 289.744 366.733 304.228 362.306 308.583Z" fill="black"/>
<path d="M269.278 457.772C269.175 457.771 269.081 457.714 269.033 457.622C268.998 457.558 268.991 457.481 269.013 457.411C269.035 457.341 269.084 457.283 269.15 457.25L277.317 452.961C277.448 452.911 277.596 452.967 277.661 453.092C277.727 453.217 277.688 453.37 277.572 453.45L269.406 457.739C269.367 457.761 269.323 457.772 269.278 457.772Z" fill="black"/>
<path d="M515.172 409.606C515.117 409.608 515.062 409.592 515.017 409.561C514.89 409.476 514.855 409.305 514.939 409.178L518.356 404.039C518.411 403.956 518.507 403.908 518.607 403.915C518.707 403.921 518.796 403.98 518.84 404.07C518.885 404.16 518.878 404.267 518.822 404.35L515.4 409.483C515.349 409.56 515.264 409.606 515.172 409.606Z" fill="black"/>
<path d="M252.022 252.856C251.897 252.855 251.788 252.771 251.756 252.65C251.735 252.58 251.744 252.505 251.779 252.441C251.815 252.377 251.874 252.331 251.944 252.311L260.65 249.867C260.803 249.825 260.961 249.916 261.003 250.069C261.044 250.223 260.953 250.381 260.8 250.422L252.094 252.861L252.022 252.856Z" fill="black"/>
<g opacity="0.16">
<path d="M152.361 368.039L156.6 381.828L189.75 368.872C189.75 368.872 160.161 376.728 158.383 377.339C157.294 375.617 152.361 368.039 152.361 368.039Z" fill="black"/>
</g>
<g opacity="0.16">
<path d="M263.922 234.906C263.922 234.906 255 244.906 255.811 251.356C256.622 257.806 268.194 259.839 268.194 259.839C268.194 259.839 261.422 254.283 260.583 250.167C259.922 246.928 261.083 241.85 263.922 234.906Z" fill="black"/>
</g>
<g opacity="0.16">
<path d="M397.967 310.556L477.978 304.772L474.972 312.478L397.967 310.556Z" fill="black"/>
</g>
<g opacity="0.16">
<path d="M560.122 313.828L576.211 317.417L580.7 304.772L574.856 312.189L560.122 313.828Z" fill="black"/>
</g>
<g opacity="0.16">
<path d="M433.044 404.194L432.872 372.278L462.75 365.372L425.556 368.572L433.044 404.194Z" fill="black"/>
</g>
<g opacity="0.16">
<path d="M343.211 558.7L448.378 521.089L336.206 574.717L343.211 558.7Z" fill="black"/>
</g>
<g opacity="0.16">
<path d="M365.6 287.956C368.942 293.393 374.778 296.805 381.156 297.05C381.156 297.05 380.272 292.161 380.044 288.717C380.056 288.739 365.528 286.328 365.6 287.956Z" fill="black"/>
<path d="M381.156 297.339C370.3 296.933 365.417 288.189 365.367 288.1C365.345 288.065 365.333 288.025 365.333 287.983C365.328 287.812 365.402 287.648 365.533 287.539C366.872 286.35 377.911 288.094 380.111 288.472C380.24 288.495 380.336 288.603 380.344 288.733C380.556 292.1 381.456 296.967 381.456 297.011C381.468 297.095 381.444 297.18 381.389 297.244C381.331 297.312 381.244 297.347 381.156 297.339ZM365.911 287.922C366.467 288.861 371.15 296.256 380.833 296.756C380.633 295.611 380 291.828 379.806 288.978C373.483 287.939 366.522 287.261 365.911 287.922Z" fill="black"/>
</g>
<path d="M359.278 265.794C359.278 265.794 334.311 264 322.778 240.239C311.244 216.478 332.161 193.378 350 187.611C367.839 181.844 419.1 188.328 420.661 231.422C422.222 274.517 359.278 265.794 359.278 265.794Z" fill="#5A291B"/>
<path d="M371.733 266.783C367.56 266.801 363.389 266.564 359.244 266.072C358.633 266.022 333.911 263.817 322.522 240.356C318.267 231.6 318.078 222.122 321.994 212.961C327.661 199.672 340.1 190.517 349.911 187.344C361.089 183.733 385.556 185.017 402.428 196.833C414.178 205.061 420.406 216.7 420.939 231.417C421.306 241.45 418.189 249.517 411.683 255.394C401.117 264.944 383.589 266.783 371.733 266.783ZM363.689 186.111C358.294 186.111 353.556 186.756 350.1 187.872C340.406 191.006 328.122 200.05 322.522 213.183C318.678 222.189 318.856 231.517 323.039 240.117C334.372 263.45 359.061 265.5 359.311 265.522C359.661 265.572 394.478 270.189 411.317 254.967C417.689 249.211 420.761 241.289 420.383 231.422C419.856 216.889 413.717 205.4 402.106 197.278C390.611 189.233 375.556 186.111 363.689 186.111Z" fill="black"/>
<path d="M344.072 265.4C344.072 265.4 355.228 289.844 374.306 289.6C393.383 289.356 399.861 265.256 399.861 265.256C399.861 265.256 409.933 264.656 410.417 256.367C410.9 248.078 401.567 249.828 401.567 249.828C402.122 249.094 404.417 209.683 376.428 228.883C362.817 238.222 356.683 233.022 350.017 244.511L343.306 253C343.306 253 338.506 244.011 334.011 253C329.517 261.989 339.05 269.333 344.072 265.4Z" fill="#FFEFD7"/>
<path d="M374 289.878C356.311 289.878 345.344 268.644 343.967 265.822C341.744 267.344 338.594 266.994 336.033 264.9C333.328 262.678 331.122 258.206 333.811 252.85C335.172 250.117 336.728 248.722 338.422 248.7H338.467C340.872 248.7 342.772 251.478 343.389 252.478L349.844 244.311C353.7 237.644 357.367 236.533 362.439 235.028C366.056 233.917 370.55 232.583 376.328 228.628C385.472 222.356 392.389 221.617 396.883 226.406C402.672 232.6 402.522 246.528 401.994 249.433C403.206 249.278 406.711 249.028 408.928 250.983C410.283 252.178 410.894 253.978 410.75 256.328C410.272 264.139 401.539 265.344 400.106 265.489C399.433 267.756 392.5 289.594 374.333 289.85L374 289.878ZM344.072 265.117H344.139C344.223 265.135 344.294 265.193 344.328 265.272C344.439 265.511 355.511 289.306 374 289.306H374.306C392.95 289.039 399.533 265.417 399.6 265.167C399.631 265.052 399.731 264.969 399.85 264.961C399.95 264.961 409.683 264.278 410.172 256.306C410.311 254.133 409.761 252.489 408.539 251.411C406.089 249.25 401.7 250.05 401.656 250.056C401.542 250.081 401.425 250.029 401.367 249.928C401.301 249.833 401.301 249.706 401.367 249.611C401.628 248.972 402.811 231.867 395.439 225.856C391.15 222.356 384.811 223.439 376.606 229.067C370.767 233.072 366.222 234.439 362.572 235.539C357.622 237.033 354.044 238.111 350.272 244.606L343.539 253.128C343.482 253.201 343.392 253.24 343.3 253.233C343.206 253.223 343.123 253.167 343.078 253.083C343.078 253.044 340.95 249.194 338.4 249.239C336.928 249.239 335.544 250.55 334.278 253.078C331.744 258.144 333.822 262.372 336.367 264.456C338.911 266.539 341.856 266.756 343.889 265.167C343.942 265.128 344.007 265.11 344.072 265.117Z" fill="black"/>
<path d="M341.956 241.472C341.956 241.472 358.311 259.767 359.622 251.622C360.933 243.478 350.05 231.828 350.05 231.828C350.05 231.828 377.794 260.472 385.05 255.917C392.306 251.361 373.689 224.689 373.689 224.689C373.689 224.689 402.906 258.85 407.417 252.417C411.928 245.983 394.8 219.689 394.8 219.689" fill="#5A291B"/>
<path d="M383.178 256.672C376.022 256.672 360.872 242.828 353.733 235.872C354.328 236.678 354.956 237.572 355.572 238.522C359.006 243.794 360.467 248.217 359.911 251.667C359.717 252.889 359.178 253.639 358.311 253.889C353.922 255.172 342.261 242.222 341.767 241.667C341.688 241.551 341.707 241.396 341.811 241.303C341.915 241.21 342.072 241.209 342.178 241.3C342.211 241.333 345.211 244.678 348.689 247.828C353.233 251.939 356.506 253.856 358.133 253.383C358.783 253.194 359.178 252.611 359.339 251.6C360.611 243.683 349.95 232.156 349.839 232.039C349.736 231.93 349.736 231.759 349.839 231.65C349.891 231.597 349.962 231.568 350.036 231.568C350.11 231.568 350.181 231.597 350.233 231.65C350.506 231.933 377.906 260.078 384.906 255.694C385.678 255.192 386.2 254.383 386.339 253.472C387.922 245.694 373.611 225.083 373.467 224.872C373.382 224.751 373.406 224.586 373.522 224.494C373.641 224.405 373.808 224.422 373.906 224.533C374.15 224.822 398.311 252.972 405.739 252.972H405.911C406.438 252.978 406.933 252.722 407.233 252.289C409.017 249.744 407.411 243.35 402.589 233.794C398.917 226.517 394.633 219.939 394.594 219.872C394.528 219.79 394.514 219.678 394.558 219.582C394.602 219.486 394.697 219.424 394.802 219.42C394.908 219.417 395.006 219.474 395.056 219.567C395.761 220.65 412.278 246.094 407.689 252.606C407.293 253.182 406.638 253.527 405.939 253.528C399.828 253.822 383.033 235.656 376.317 228.094C380.394 234.417 388.161 247.5 386.922 253.589C386.758 254.65 386.152 255.592 385.256 256.183C384.625 256.545 383.903 256.715 383.178 256.672Z" fill="black"/>
<path d="M340.778 191.994C340.778 191.994 307.289 195.683 301.406 168.311C295.522 140.939 319.961 131.411 346.05 135.639C372.139 139.867 369.172 123.483 387.667 123.294C406.161 123.106 431.478 165.867 392.161 184.206C352.844 202.544 358.172 184.656 340.778 191.994Z" fill="#5A291B"/>
<path d="M363.522 193.072C360.536 193.041 357.574 192.531 354.75 191.561C350.922 190.405 347.617 189.411 340.889 192.25C340.863 192.255 340.837 192.255 340.811 192.25C334.901 192.712 328.956 192.179 323.222 190.672C314.839 188.372 304.2 182.633 301.133 168.355C298.95 158.194 300.739 150.022 306.439 144C314.217 135.822 329.033 132.589 346.094 135.355C360.783 137.733 366.211 133.505 371.467 129.411C375.456 126.305 379.578 123.089 387.667 123.005H387.794C397.794 123.005 409.25 134.95 412.367 148.661C415.811 163.844 408.478 176.883 392.278 184.444C377.778 191.228 369.294 193.067 363.522 193.072ZM348.689 189.844C351.006 189.844 352.9 190.4 354.939 191.028C360.878 192.822 368.272 195.055 392.072 183.955C408.028 176.511 415.233 163.7 411.85 148.8C408.772 135.261 397.489 123.478 387.7 123.572C379.8 123.65 375.933 126.667 371.833 129.861C366.467 134.005 360.911 138.333 346.006 135.911C329.128 133.178 314.489 136.35 306.844 144.394C301.289 150.255 299.539 158.283 301.678 168.25C304.683 182.25 315.128 187.883 323.344 190.144C329.002 191.632 334.867 192.165 340.7 191.722C344.017 190.328 346.517 189.844 348.689 189.844Z" fill="black"/>
<path d="M332.728 186.644C332.728 186.644 329.117 193.867 337.172 196.967C345.228 200.067 360.983 194.472 369.506 194.489C378.028 194.506 395.1 196.489 394.8 189.767C394.5 183.044 388.172 176.706 367.844 181.839C347.517 186.972 337.25 178.778 332.728 186.644Z" fill="#362B6E"/>
<path d="M343.328 198.161C341.203 198.223 339.085 197.905 337.072 197.222C334.533 196.256 332.861 194.778 332.072 192.833C330.872 189.75 332.389 186.65 332.45 186.517C334.911 182.228 339.017 182.544 345.228 183.017C350.678 183.433 358.139 184.006 367.733 181.583C378.644 178.806 386.778 179.122 391.25 182.45C393.579 184.169 394.977 186.873 395.033 189.767C395.095 190.764 394.72 191.739 394.006 192.439C390.983 195.489 381.783 195.167 374.417 194.906C372.611 194.839 370.906 194.783 369.461 194.778C366.35 194.778 362.189 195.528 357.794 196.333C353.039 197.2 347.811 198.161 343.328 198.161ZM332.972 186.783C332.9 186.944 331.533 189.861 332.622 192.644C333.322 194.439 334.889 195.806 337.272 196.717C342.272 198.622 350.494 197.111 357.756 195.783C362.139 194.983 366.283 194.222 369.461 194.222H369.506C370.961 194.222 372.672 194.289 374.478 194.35C381.756 194.606 390.806 194.906 393.656 192.05C394.263 191.46 394.58 190.633 394.522 189.789C394.463 187.064 393.149 184.52 390.961 182.894C386.628 179.672 378.661 179.406 367.917 182.122C358.228 184.567 350.694 183.994 345.228 183.572C339.011 183.083 335.261 182.8 332.972 186.783Z" fill="black"/>
<path d="M340.194 262.022H340.139C340.067 262.006 340.004 261.962 339.964 261.9C339.924 261.837 339.911 261.761 339.928 261.689C340.872 257.428 336.178 254.694 336.128 254.667C335.997 254.589 335.952 254.421 336.028 254.289C336.064 254.225 336.124 254.178 336.196 254.159C336.267 254.14 336.342 254.151 336.406 254.189C336.456 254.189 341.5 257.156 340.467 261.811C340.436 261.936 340.323 262.023 340.194 262.022Z" fill="black"/>
<path d="M368.089 371.572C341.7 371.572 329.35 390.95 329.35 390.95C329.35 390.95 339.717 410.328 368.089 410.328C396.461 410.328 406.833 390.95 406.833 390.95C406.833 390.95 394.483 371.572 368.089 371.572Z" fill="white"/>
<path d="M368.089 410.606C339.878 410.606 329.2 391.278 329.106 391.083C329.053 390.996 329.053 390.887 329.106 390.8C329.228 390.606 341.844 371.294 368.078 371.294C394.311 371.294 406.933 390.606 407.061 390.8C407.111 390.888 407.111 390.995 407.061 391.083C406.978 391.278 396.306 410.606 368.089 410.606ZM329.672 390.961C330.706 392.728 341.511 410.05 368.089 410.05C394.667 410.05 405.478 392.728 406.511 390.961C405.328 389.228 392.85 371.85 368.089 371.85C343.328 371.85 330.856 389.228 329.672 390.961Z" fill="black"/>
<path d="M381.211 390.95C381.211 398.197 375.336 404.072 368.089 404.072C360.842 404.072 354.967 398.197 354.967 390.95C354.967 383.703 360.842 377.828 368.089 377.828C371.57 377.826 374.908 379.208 377.369 381.67C379.831 384.131 381.213 387.469 381.211 390.95Z" fill="#6A86EB"/>
<path d="M368.089 404.344C362.667 404.353 357.773 401.094 355.693 396.087C353.612 391.079 354.754 385.312 358.586 381.475C362.417 377.639 368.184 376.489 373.193 378.564C378.203 380.638 381.469 385.528 381.467 390.95C381.458 398.337 375.476 404.326 368.089 404.344ZM368.089 378.106C362.892 378.097 358.201 381.22 356.206 386.019C354.211 390.818 355.305 396.346 358.976 400.025C362.648 403.703 368.175 404.806 372.977 402.819C377.779 400.832 380.911 396.147 380.911 390.95C380.902 383.869 375.17 378.127 368.089 378.106Z" fill="black"/>
<path d="M374.672 390.95C374.674 393.613 373.072 396.015 370.612 397.036C368.152 398.057 365.32 397.495 363.436 395.613C361.552 393.73 360.988 390.898 362.006 388.438C363.025 385.977 365.426 384.372 368.089 384.372C369.834 384.371 371.509 385.063 372.744 386.297C373.978 387.531 374.672 389.204 374.672 390.95Z" fill="white"/>
<path d="M368.089 397.806C364.303 397.803 361.237 394.732 361.239 390.946C361.241 387.161 364.311 384.093 368.096 384.094C371.882 384.096 374.95 387.165 374.95 390.95C374.947 394.737 371.876 397.806 368.089 397.806ZM368.089 384.65C364.61 384.653 361.792 387.475 361.794 390.954C361.797 394.432 364.618 397.251 368.096 397.25C371.575 397.249 374.394 394.429 374.394 390.95C374.388 387.471 371.568 384.653 368.089 384.65Z" fill="black"/>
<path d="M367.794 362.517C367.641 362.517 367.517 362.392 367.517 362.239V344.339C367.517 344.185 367.641 344.061 367.794 344.061C367.948 344.061 368.072 344.185 368.072 344.339V362.239C368.072 362.392 367.948 362.517 367.794 362.517Z" fill="black"/>
<path d="M343.644 370.183C343.564 370.183 343.487 370.148 343.433 370.089L331.767 356.561C331.718 356.506 331.693 356.434 331.699 356.361C331.704 356.288 331.738 356.22 331.794 356.172C331.912 356.073 332.087 356.085 332.189 356.2L343.856 369.728C343.908 369.779 343.937 369.849 343.937 369.922C343.937 369.995 343.908 370.065 343.856 370.117C343.797 370.166 343.721 370.19 343.644 370.183Z" fill="black"/>
<path d="M391.944 370.183C391.835 370.187 391.734 370.125 391.687 370.026C391.641 369.926 391.659 369.809 391.733 369.728L403.4 356.2C403.46 356.111 403.566 356.064 403.672 356.08C403.778 356.096 403.866 356.172 403.897 356.275C403.928 356.378 403.896 356.489 403.817 356.561L392.15 370.089C392.097 370.147 392.023 370.181 391.944 370.183Z" fill="black"/>
<path d="M337.161 260.95C337.087 260.943 337.019 260.907 336.972 260.849C336.925 260.792 336.903 260.718 336.911 260.644C337.106 258.717 339.461 257.678 339.561 257.633C339.653 257.58 339.768 257.584 339.856 257.644C339.944 257.704 339.99 257.809 339.975 257.914C339.959 258.02 339.885 258.107 339.783 258.139C339.783 258.139 337.628 259.1 337.467 260.7C337.449 260.852 337.314 260.963 337.161 260.95Z" fill="black"/>
<path d="M401.267 260.95C401.121 260.948 401 260.834 400.989 260.689C400.756 256.244 402.778 254.3 402.861 254.222C402.913 254.17 402.984 254.14 403.058 254.14C403.132 254.14 403.203 254.17 403.256 254.222C403.308 254.273 403.337 254.343 403.337 254.417C403.337 254.49 403.308 254.56 403.256 254.611C403.256 254.611 401.339 256.494 401.556 260.644C401.56 260.718 401.535 260.791 401.486 260.846C401.437 260.901 401.368 260.935 401.294 260.939L401.267 260.95Z" fill="black"/>
<path d="M404.8 260.117H404.75C404.6 260.089 404.501 259.945 404.528 259.794C404.574 259.56 404.517 259.317 404.372 259.128C403.817 258.35 402.089 257.922 401.472 257.828C401.319 257.805 401.213 257.662 401.236 257.508C401.259 257.355 401.402 257.249 401.556 257.272C401.656 257.272 404.028 257.672 404.828 258.806C405.064 259.124 405.153 259.528 405.072 259.917C405.039 260.038 404.926 260.121 404.8 260.117Z" fill="black"/>
<path d="M439.8 525.239C407.394 536.411 364.556 518.367 350.356 477.178C336.156 435.989 358.783 395.383 391.183 384.217C423.583 373.05 495.828 390.061 507.333 423.906C518.789 457.544 472.217 514.072 439.8 525.239Z" fill="#FF6B6B"/>
<path d="M419.928 528.767C408.879 528.701 397.996 526.075 388.133 521.094C370.272 512.167 356.767 496.606 350.1 477.272C343.433 457.939 344.489 437.361 353.056 419.322C361.089 402.411 374.956 389.517 391.106 383.956C412.217 376.672 449.9 381.333 476.906 394.561C493.194 402.539 503.811 412.656 507.611 423.817C519.194 457.9 471.917 514.467 439.894 525.483C433.467 527.677 426.719 528.786 419.928 528.767ZM415.528 381.072C406.356 381.072 397.983 382.183 391.294 384.478C375.283 389.994 361.533 402.783 353.561 419.561C345.056 437.467 344.017 457.894 350.633 477.089C357.25 496.283 370.633 511.733 388.411 520.594C405.028 528.928 423.739 530.494 439.744 524.978C471.578 514.006 518.633 457.828 507.111 423.994C503.367 412.978 492.844 402.972 476.689 395.056C458.356 386.089 435.117 381.072 415.528 381.072Z" fill="black"/>
<path d="M474.406 440.322L476.122 445.322L626.728 389.3L621.817 375.039L498.35 414.717C493.994 423.789 484.389 434.9 474.406 440.322Z" fill="#FF6B6B"/>
<path d="M476.122 445.589C476.004 445.586 475.9 445.511 475.861 445.4L474.139 440.4C474.093 440.271 474.15 440.129 474.272 440.067C484.572 434.478 494.056 423.011 498.1 414.578C498.132 414.508 498.193 414.455 498.267 414.433L621.728 374.75C621.873 374.706 622.028 374.784 622.078 374.928L626.994 389.189C627.04 389.331 626.967 389.484 626.828 389.539L476.222 445.567C476.191 445.582 476.157 445.589 476.122 445.589ZM474.744 440.45L476.294 444.95L626.378 389.122L621.639 375.378L498.55 414.933C494.589 423.128 485.494 434.561 474.744 440.45Z" fill="black"/>
<path d="M451.8 467.433C439.355 471.719 425.792 465.106 421.506 452.661C417.219 440.217 423.831 426.653 436.276 422.366C448.72 418.078 462.284 424.69 466.572 437.133C470.858 449.58 464.245 463.144 451.8 467.433Z" fill="#362B6E"/>
<path d="M444.061 469.006C431.511 469.023 421.044 459.413 419.991 446.907C418.938 434.401 427.651 423.177 440.027 421.095C452.403 419.014 464.309 426.77 467.405 438.932C470.501 451.094 463.754 463.599 451.889 467.689C449.371 468.561 446.725 469.006 444.061 469.006ZM444.011 421.339C434.658 421.345 426.194 426.884 422.445 435.453C418.697 444.022 420.373 453.998 426.717 460.871C433.06 467.744 442.87 470.213 451.711 467.161C462.59 463.406 469.163 452.34 467.256 440.991C465.349 429.641 455.52 421.332 444.011 421.339Z" fill="black"/>
<path d="M364.647 453.025L368.124 451.826L379.758 485.577L376.281 486.776L364.647 453.025Z" fill="#E5EAE9"/>
<path d="M376.283 487.05C376.243 487.058 376.202 487.058 376.161 487.05C376.096 487.016 376.046 486.959 376.022 486.889L364.356 453.133C364.328 453.066 364.328 452.99 364.356 452.922C364.385 452.856 364.442 452.805 364.511 452.783L367.989 451.589C368.059 451.564 368.136 451.568 368.203 451.601C368.269 451.633 368.32 451.691 368.344 451.761L379.978 485.511C380.026 485.655 379.949 485.811 379.806 485.861L376.328 487.061C376.313 487.059 376.298 487.055 376.283 487.05ZM365 453.161L376.467 486.417L379.417 485.4L367.956 452.172L365 453.161Z" fill="black"/>
<path d="M369.939 465.161L369.733 464.55L619.972 380.339L620.178 380.95L369.939 465.161Z" fill="black"/>
<path d="M373.189 474.583L622.067 386.422L622.283 387.039L373.4 475.2L373.189 474.583Z" fill="black"/>
<path d="M643.25 356.072C643.405 356.521 643.511 356.984 643.567 357.456L641.728 358.094L643.872 364.311L641.883 364.989L639.744 358.772L637.772 359.45C637.525 359.045 637.322 358.615 637.167 358.167C636.317 355.7 636.994 353.228 638.667 352.65C640.339 352.072 642.4 353.606 643.25 356.072Z" fill="black"/>
<path d="M634.422 359.117C634.572 359.565 634.682 360.026 634.75 360.494L632.9 361.133L635.044 367.35L633.061 368.033L630.911 361.817L628.939 362.494C628.698 362.088 628.498 361.658 628.344 361.211C627.489 358.739 628.161 356.272 629.833 355.689C631.506 355.106 633.572 356.65 634.422 359.117Z" fill="black"/>
<path d="M655.667 392.111C655.518 391.664 655.319 391.235 655.072 390.833L653.233 391.461L651.083 385.233L649.1 385.917L651.25 392.144L649.278 392.828C649.329 393.298 649.436 393.76 649.594 394.206C650.439 396.667 652.494 398.206 654.167 397.628C655.839 397.05 656.517 394.561 655.667 392.111Z" fill="black"/>
<path d="M646.839 395.15C646.687 394.704 646.492 394.274 646.256 393.867L644.411 394.511L642.261 388.278L640.278 388.961L642.422 395.189L640.45 395.872C640.508 396.34 640.618 396.801 640.778 397.244C641.628 399.711 643.672 401.244 645.344 400.672C647.017 400.1 647.694 397.617 646.839 395.15Z" fill="black"/>
<path d="M650.039 391.228C641.483 394.178 617.317 394.744 614.367 386.183C611.417 377.622 630.8 363.183 639.367 360.233C647.854 357.526 656.95 362.091 659.85 370.515C662.751 378.938 658.394 388.136 650.039 391.228Z" fill="#FF6B6B"/>
<path d="M634.717 393.45C633.144 393.45 631.583 393.394 630.078 393.283C624.883 392.894 615.9 391.461 614.106 386.256C611.083 377.489 630.644 362.922 639.267 359.95C644.898 358.01 651.136 359.221 655.631 363.128C660.127 367.034 662.197 373.042 661.062 378.889C659.927 384.735 655.759 389.532 650.128 391.472C646.533 392.733 640.544 393.45 634.717 393.45ZM644.683 359.6C642.9 359.601 641.13 359.897 639.444 360.478C631.211 363.317 611.767 377.761 614.628 386.072C616.294 390.983 625.061 392.35 630.122 392.739C637.106 393.261 645.439 392.511 649.944 390.956C657.39 388.392 661.891 380.821 660.588 373.055C659.284 365.289 652.558 359.603 644.683 359.611V359.6Z" fill="black"/>
<path d="M647.867 369.217C647.027 369.572 646.055 369.378 645.416 368.727C644.777 368.076 644.6 367.101 644.97 366.268C645.34 365.435 646.182 364.912 647.093 364.949C648.004 364.987 648.8 365.578 649.1 366.439C649.526 367.546 648.974 368.79 647.867 369.217Z" fill="black"/>
<path d="M641.55 377.111C640.711 377.468 639.738 377.276 639.098 376.627C638.457 375.977 638.279 375.002 638.647 374.168C639.016 373.333 639.857 372.809 640.769 372.846C641.68 372.882 642.477 373.472 642.778 374.333C643.201 375.439 642.653 376.68 641.55 377.111Z" fill="black"/>
<path d="M634.728 385.178C633.887 385.531 632.916 385.335 632.279 384.683C631.641 384.031 631.467 383.056 631.838 382.224C632.209 381.391 633.051 380.87 633.962 380.909C634.873 380.948 635.668 381.539 635.967 382.4C636.172 382.933 636.157 383.525 635.925 384.046C635.692 384.568 635.262 384.975 634.728 385.178Z" fill="black"/>
<path d="M242.267 406.228C242.267 406.228 200.283 466.728 218.583 485.928C236.883 505.128 392.589 467.289 428.322 442.422C464.056 417.556 277.444 453.2 277.444 453.2L289.633 432.428L242.267 406.228Z" fill="#FFEFD7"/>
<path d="M242.15 491.411C230.594 491.411 221.95 489.867 218.378 486.122C210.706 478.072 212.367 462.139 223.311 438.767C228.736 427.425 234.99 416.499 242.022 406.078C242.102 405.96 242.258 405.922 242.383 405.989L289.75 432.189C289.816 432.225 289.865 432.288 289.883 432.361C289.914 432.428 289.914 432.505 289.883 432.572L278.006 452.817C283.006 451.878 318.006 445.305 353.161 440.094C403.978 432.555 430.844 431.333 433.006 436.467C433.672 438.055 432.2 440.078 428.494 442.655C411.7 454.322 365.844 470.1 316.983 480.989C290.822 486.783 262.133 491.411 242.15 491.411ZM242.35 406.6C239.683 410.489 201.383 467.478 218.783 485.739C222.261 489.389 230.722 490.894 242.056 490.9C261.933 490.9 290.656 486.267 316.856 480.433C365.65 469.572 411.422 453.85 428.167 442.2C431.528 439.861 433.017 437.955 432.483 436.683C431.072 433.35 416.178 431.305 353.233 440.644C315.483 446.239 277.872 453.422 277.494 453.478C277.388 453.499 277.279 453.456 277.217 453.367C277.158 453.275 277.158 453.158 277.217 453.067L289.244 432.539L242.35 406.6Z" fill="black"/>
<path d="M186.633 724.628C186.584 724.628 186.536 724.615 186.494 724.589C186.362 724.509 186.318 724.339 186.394 724.206L319.244 497.678C319.294 497.591 319.387 497.537 319.487 497.537C319.588 497.537 319.68 497.593 319.729 497.681C319.777 497.768 319.775 497.876 319.722 497.961L186.889 724.489C186.837 724.58 186.738 724.633 186.633 724.628Z" fill="black"/>
<path d="M134.8 827.844C134.8 827.844 120.622 827.844 110.633 782.844C100.644 737.844 110.456 702.989 133.967 726.844C157.478 750.7 158.067 846.311 134.8 827.844Z" fill="#362B6E"/>
<path d="M140.356 830.461C138.6 830.461 136.7 829.678 134.711 828.117C133.311 828.039 119.967 826.139 110.372 782.9C103.5 751.939 105.928 725.433 116.117 719.889C120.967 717.25 127.2 719.589 134.156 726.65C142.889 735.539 149.383 755.322 151.533 779.617C153.533 802.161 150.978 821.622 145.228 828.044C143.756 829.656 142.117 830.461 140.356 830.461ZM120.261 719.394C118.902 719.387 117.564 719.725 116.372 720.378C106.372 725.806 104.083 752.044 110.906 782.783C120.706 826.939 134.661 827.561 134.794 827.567C134.857 827.565 134.917 827.584 134.967 827.622C138.794 830.661 142.1 830.678 144.794 827.672C150.467 821.361 152.95 802.067 150.967 779.667C148.828 755.494 142.389 735.822 133.744 727.039C128.75 721.978 124.172 719.394 120.261 719.394Z" fill="black"/>
<path d="M634.072 223C634.072 223 626.339 197.411 632.767 190.472C633.397 189.775 634.304 189.394 635.243 189.431C636.182 189.469 637.055 189.921 637.628 190.667C640.194 194.189 639.35 202.683 647.889 203.106C658.678 203.661 670.728 177.55 674.822 180.206C678.917 182.861 665.861 201.406 665.861 201.406C665.861 201.406 676.611 185.422 679.083 186.089C682.078 186.9 680.522 191.561 669.833 205.778C669.833 205.778 679.361 192.211 680.828 193.217C683.172 194.822 675.333 213.856 657.311 231.822" fill="#FFEFD7"/>
<path d="M657.311 232.1C657.236 232.1 657.164 232.07 657.111 232.017C657.005 231.907 657.005 231.732 657.111 231.622C673.278 215.511 681.333 198.411 680.944 194.139C680.953 193.88 680.854 193.629 680.672 193.444C680.261 193.167 677.839 195.55 673.967 200.6C672.815 202.222 671.519 204.004 670.078 205.944C669.988 206.066 669.818 206.093 669.694 206.006C669.574 205.916 669.545 205.747 669.628 205.622C670.617 204.217 672.061 202.2 673.6 200.183C678.6 193.1 680.661 188.933 680.078 187.233C679.909 186.778 679.512 186.446 679.033 186.361C677.511 185.956 671.422 193.872 667.244 199.911C666.617 200.85 666.194 201.45 666.133 201.578C666.047 201.703 665.876 201.735 665.75 201.65C665.628 201.562 665.596 201.393 665.678 201.267C665.906 200.928 666.233 200.417 666.678 199.794C669.294 195.906 676.072 185.278 675.328 181.461C675.273 181.055 675.049 180.692 674.711 180.461C673.183 179.478 669.817 183.794 666.244 188.367C660.906 195.206 654.261 203.722 647.911 203.406C641.689 203.1 640.256 198.522 639.106 194.844C638.622 193.306 638.167 191.856 637.439 190.856C636.945 190.195 636.184 189.788 635.361 189.744C634.473 189.69 633.608 190.039 633.006 190.694C626.756 197.439 634.294 222.694 634.372 222.95C634.401 223.049 634.375 223.156 634.303 223.231C634.232 223.305 634.126 223.336 634.025 223.311C633.925 223.287 633.845 223.21 633.817 223.111C632.511 218.612 631.485 214.037 630.744 209.411C629.228 199.683 629.844 193.261 632.572 190.317C633.284 189.547 634.304 189.139 635.35 189.206C636.342 189.253 637.26 189.747 637.844 190.55C638.628 191.622 639.1 193.117 639.594 194.7C640.756 198.394 642.067 202.583 647.9 202.872C653.961 203.172 660.5 194.789 665.756 188.05C669.967 182.656 673.011 178.761 674.967 180.017C675.429 180.331 675.739 180.825 675.822 181.378C676.306 183.861 673.944 188.817 671.428 193.206C674.467 189.25 677.8 185.5 679.15 185.867C679.807 186 680.348 186.465 680.578 187.094C681.072 188.544 680.072 191.244 677.311 195.656C678.978 193.811 680.389 192.622 680.978 193.033C681.31 193.305 681.499 193.715 681.489 194.144C681.889 198.5 673.783 215.839 657.5 232.072C657.442 232.104 657.375 232.113 657.311 232.1Z" fill="black"/>
<path d="M632.817 193.922C632.817 193.922 634.128 189.844 636.361 193.039Z" fill="#F9769A"/>
<path d="M632.817 194.2C632.787 194.205 632.757 194.205 632.728 194.2C632.582 194.152 632.503 193.996 632.55 193.85C632.55 193.767 633.239 191.756 634.506 191.567C635.206 191.461 635.9 191.906 636.589 192.889C636.678 193.015 636.648 193.189 636.522 193.278C636.396 193.367 636.222 193.337 636.133 193.211C635.578 192.411 635.056 192.045 634.589 192.1C633.817 192.217 633.239 193.511 633.078 194.006C633.043 194.121 632.937 194.2 632.817 194.2Z" fill="black"/>
<path d="M672.778 182.294C672.778 182.294 674.589 181.183 674.444 183.217Z" fill="#F9769A"/>
<path d="M674.444 183.494C674.37 183.49 674.3 183.456 674.251 183.399C674.201 183.343 674.177 183.269 674.183 183.194C674.217 182.728 674.139 182.411 673.967 182.311C673.706 182.156 673.167 182.389 672.944 182.528C672.814 182.609 672.642 182.569 672.561 182.439C672.48 182.308 672.52 182.137 672.65 182.056C672.744 181.994 673.633 181.461 674.256 181.833C674.622 182.056 674.811 182.528 674.739 183.233C674.735 183.307 674.701 183.376 674.646 183.425C674.591 183.474 674.518 183.499 674.444 183.494Z" fill="black"/>
<path d="M677.989 187.967C677.989 187.967 679.244 187.328 679.417 188.678Z" fill="#F9769A"/>
<path d="M679.417 188.956C679.276 188.954 679.158 188.85 679.139 188.711C679.135 188.492 679.03 188.287 678.855 188.156C678.61 188.078 678.343 188.105 678.117 188.228C677.98 188.296 677.814 188.242 677.744 188.106C677.71 188.04 677.703 187.964 677.726 187.894C677.75 187.823 677.8 187.766 677.867 187.733C678.253 187.526 678.711 187.502 679.117 187.667C679.453 187.882 679.661 188.25 679.672 188.65C679.683 188.723 679.664 188.798 679.619 188.856C679.574 188.915 679.507 188.953 679.433 188.961L679.417 188.956Z" fill="black"/>
<path d="M679.906 194.467C679.906 194.467 680.639 194.683 680.239 196.006Z" fill="#F9769A"/>
<path d="M680.239 196.283H680.156C680.01 196.236 679.928 196.08 679.972 195.933C680.278 194.922 679.839 194.75 679.822 194.744C679.679 194.694 679.6 194.54 679.644 194.394C679.69 194.252 679.839 194.171 679.983 194.211C680.2 194.288 680.379 194.445 680.483 194.65C680.674 195.113 680.674 195.632 680.483 196.094C680.446 196.2 680.351 196.274 680.239 196.283Z" fill="black"/>
<path d="M413.994 122.078C413.994 122.078 391.8 107.178 392.378 97.7332C392.425 96.7949 392.887 95.9261 393.638 95.3617C394.389 94.7973 395.352 94.5955 396.267 94.811C400.489 95.9221 405.211 103.017 412.089 97.9332C420.772 91.511 413.583 63.711 418.417 63.1554C423.25 62.5999 425.789 88.0554 425.789 88.0554C425.789 88.0554 425.233 66.0999 427.561 65.0499C430.394 63.7777 434.228 72.661 434.967 90.4332C434.967 90.4332 436.422 71.0888 438.189 70.9388C441.022 70.6999 444.356 86.6666 441.789 111.983" fill="#FFEFD7"/>
<path d="M413.994 122.339C413.94 122.338 413.888 122.321 413.844 122.289C409.984 119.637 406.291 116.748 402.789 113.639C395.45 107.067 391.856 101.706 392.1 97.7C392.166 96.6481 392.697 95.6805 393.55 95.0611C394.347 94.4721 395.365 94.2685 396.328 94.5055C397.617 94.8444 398.922 95.7 400.311 96.6111C403.55 98.7389 407.217 101.144 411.911 97.6778C416.789 94.0722 416.539 83.4389 416.356 74.9C416.2 68.0555 416.083 63.1167 418.394 62.85C418.91 62.8036 419.422 62.9748 419.806 63.3222C422.661 65.6222 424.539 76.3 425.444 82.8444C425.444 76.0278 425.678 65.5667 427.45 64.7722C427.994 64.5227 428.63 64.5842 429.117 64.9333C431.489 66.3944 434.117 73.5889 435.044 86.5C435.2 84.8055 435.411 82.7389 435.661 80.6833C436.861 70.7444 437.756 70.6833 438.189 70.6333C438.603 70.622 439 70.7999 439.267 71.1167C441.811 73.7055 444.467 88.4833 442.089 111.983C442.079 112.083 442.017 112.169 441.926 112.21C441.835 112.251 441.729 112.24 441.648 112.182C441.567 112.124 441.523 112.027 441.533 111.928C443.789 89.6222 441.433 74.1167 438.861 71.5055C438.71 71.3099 438.48 71.1917 438.233 71.1833C437.467 71.4055 436.144 78.6611 435.261 90.4278C435.261 90.5812 435.137 90.7055 434.983 90.7055C434.83 90.7055 434.706 90.5812 434.706 90.4278C434.078 75.35 431.211 66.8944 428.822 65.4278C428.499 65.1948 428.078 65.1464 427.711 65.3C426.139 66.0111 425.889 79.6222 426.106 88.0389C426.109 88.1111 426.083 88.1815 426.034 88.2347C425.985 88.2878 425.917 88.3193 425.844 88.3222C425.696 88.3351 425.565 88.2261 425.55 88.0778C425.55 87.8667 423.406 66.9278 419.489 63.7722C419.219 63.5213 418.856 63.3944 418.489 63.4222C416.683 63.6333 416.822 69.1111 416.944 74.9055C417.15 83.5833 417.4 94.3778 412.294 98.15C407.294 101.856 403.278 99.2222 400.072 97.1055C398.728 96.2222 397.456 95.3833 396.256 95.0722C395.455 94.8704 394.606 95.0353 393.939 95.5222C393.221 96.0443 392.773 96.8588 392.717 97.7444C392.161 106.917 413.994 121.689 414.211 121.833C414.339 121.92 414.373 122.093 414.289 122.222C414.223 122.316 414.107 122.362 413.994 122.339Z" fill="#FFEFD7"/>
<path d="M394.606 100.378C394.606 100.378 393.033 96.3944 396.783 97.45Z" fill="#F9769A"/>
<path d="M394.606 100.672C394.492 100.672 394.389 100.605 394.344 100.5C394.311 100.417 393.55 98.4445 394.411 97.489C394.883 96.9723 395.706 96.8723 396.861 97.1945C397.008 97.2375 397.093 97.3917 397.05 97.5389C397.032 97.6103 396.986 97.6712 396.922 97.7078C396.858 97.7445 396.782 97.7537 396.711 97.7334C395.778 97.4667 395.139 97.5112 394.822 97.8612C394.3 98.4167 394.672 99.8167 394.861 100.295C394.915 100.437 394.846 100.597 394.706 100.656L394.606 100.672Z" fill="black"/>
<path d="M418.133 66.061C418.133 66.061 418.817 64.0388 420.006 65.7221Z" fill="#F9769A"/>
<path d="M418.133 66.3388H418.044C417.9 66.2864 417.824 66.1288 417.872 65.9832C417.906 65.8721 418.256 64.8721 418.983 64.7943C419.417 64.7332 419.833 64.9943 420.244 65.5721C420.287 65.6315 420.304 65.7057 420.292 65.7778C420.279 65.8499 420.238 65.914 420.178 65.9555C420.055 66.0426 419.884 66.0154 419.794 65.8943C419.522 65.511 419.239 65.3388 419.061 65.3388C418.767 65.3832 418.506 65.8943 418.411 66.1555C418.369 66.2714 418.256 66.346 418.133 66.3388Z" fill="black"/>
<path d="M427.333 67.4943C427.333 67.4943 427.889 66.211 428.889 67.1443Z" fill="#F9769A"/>
<path d="M427.333 67.7721C427.297 67.7795 427.259 67.7795 427.222 67.7721C427.083 67.709 427.021 67.5451 427.083 67.4055C427.251 67.0026 427.589 66.6951 428.006 66.5666C428.408 66.5089 428.812 66.6596 429.078 66.9666C429.13 67.0178 429.159 67.0879 429.159 67.161C429.159 67.2342 429.13 67.3043 429.078 67.3555C429.026 67.408 428.955 67.4376 428.881 67.4376C428.806 67.4376 428.735 67.408 428.683 67.3555C428.549 67.1875 428.343 67.0929 428.128 67.0999C427.861 67.1499 427.656 67.4943 427.572 67.6221C427.525 67.711 427.434 67.7681 427.333 67.7721Z" fill="black"/>
<path d="M438.183 73.1556C438.183 73.1556 438.889 72.8556 439.417 74.1334Z" fill="#F9769A"/>
<path d="M439.417 74.411C439.304 74.412 439.203 74.3435 439.161 74.2388C438.756 73.261 438.306 73.4054 438.289 73.411C438.146 73.4637 437.988 73.3918 437.933 73.2499C437.906 73.1843 437.906 73.1105 437.933 73.0448C437.96 72.9791 438.012 72.9269 438.078 72.8999C438.291 72.8097 438.531 72.8097 438.744 72.8999C439.192 73.1289 439.527 73.53 439.672 74.011C439.73 74.1521 439.663 74.3133 439.522 74.3721C439.491 74.3933 439.454 74.4066 439.417 74.411Z" fill="black"/>
<path d="M373.011 273.594C372.858 273.604 372.726 273.487 372.717 273.333C372.707 273.18 372.824 273.048 372.978 273.039L379.528 272.306L373.972 257.989C373.928 257.895 373.939 257.784 374.002 257.701C374.066 257.618 374.17 257.578 374.273 257.596C374.375 257.615 374.459 257.689 374.489 257.789L380.161 272.439C380.2 272.516 380.2 272.606 380.161 272.683C380.116 272.759 380.038 272.809 379.95 272.817L373.044 273.589L373.011 273.594Z" fill="black"/>
<path d="M287.022 164.611C287.022 164.611 294.756 139.055 288.328 132.083C287.696 131.389 286.789 131.009 285.851 131.048C284.912 131.087 284.039 131.539 283.467 132.283C280.9 135.805 281.744 144.3 273.206 144.722C262.417 145.278 250.367 119.167 246.278 121.822C242.189 124.478 255.233 143.022 255.233 143.022C255.233 143.022 244.483 127.039 242.011 127.705C239.017 128.517 240.572 133.172 251.261 147.394C251.261 147.394 241.733 133.822 240.267 134.833C237.928 136.439 243.6 155.467 261.606 173.433" fill="#FFEFD7"/>
<path d="M261.6 173.711C261.527 173.714 261.456 173.686 261.406 173.633C245.939 158.217 239.028 141.189 239.506 135.983C239.493 135.456 239.712 134.951 240.106 134.6C240.7 134.194 242.106 135.383 243.772 137.228C240.994 132.817 240.011 130.117 240.511 128.667C240.736 128.035 241.276 127.569 241.933 127.439C243.3 127.067 246.617 130.822 249.661 134.778C247.139 130.389 244.778 125.433 245.261 122.95C245.343 122.395 245.656 121.9 246.122 121.589C248.078 120.328 251.122 124.228 255.328 129.617C260.589 136.356 267.111 144.744 273.183 144.444C279.017 144.156 280.333 139.967 281.489 136.272C281.983 134.689 282.456 133.194 283.239 132.117C283.829 131.32 284.743 130.827 285.733 130.772C286.778 130.715 287.795 131.121 288.511 131.883C291.233 134.828 291.844 141.256 290.339 150.983C289.595 155.609 288.567 160.184 287.261 164.683C287.217 164.837 287.056 164.925 286.903 164.881C286.749 164.836 286.661 164.676 286.706 164.522C286.783 164.267 294.322 139.011 288.072 132.261C287.467 131.611 286.603 131.264 285.717 131.317C284.894 131.357 284.134 131.765 283.644 132.428C282.911 133.428 282.456 134.883 281.978 136.422C280.822 140.094 279.389 144.672 273.167 144.983H272.828C266.589 144.983 260.089 136.65 254.844 129.939C251.278 125.367 247.906 121.05 246.378 122.033C246.04 122.264 245.816 122.628 245.761 123.033C245.017 126.861 251.8 137.478 254.411 141.367C254.844 141.994 255.183 142.478 255.411 142.833C255.489 142.959 255.455 143.124 255.334 143.208C255.212 143.292 255.046 143.267 254.956 143.15C254.872 143.033 254.45 142.433 253.844 141.483C249.667 135.444 243.578 127.522 242.056 127.928C241.579 128.015 241.182 128.346 241.011 128.8C240.428 130.506 242.5 134.672 247.494 141.756C249.033 143.772 250.472 145.789 251.461 147.189C251.545 147.316 251.516 147.486 251.394 147.578C251.271 147.665 251.101 147.638 251.011 147.517C249.552 145.572 248.256 143.791 247.122 142.172C243.233 137.122 240.822 134.739 240.417 135.017C240.172 135.282 240.043 135.634 240.056 135.994C239.672 140.183 245.383 156.839 261.794 173.217C261.847 173.269 261.877 173.34 261.877 173.414C261.877 173.488 261.847 173.559 261.794 173.611C261.748 173.672 261.677 173.709 261.6 173.711Z" fill="black"/>
<path d="M288.278 135.539C288.278 135.539 286.961 131.461 284.728 134.656Z" fill="#F9769A"/>
<path d="M288.278 135.817C288.157 135.818 288.05 135.742 288.011 135.628C287.85 135.133 287.272 133.833 286.5 133.717C286.033 133.65 285.517 134.017 284.956 134.828C284.901 134.915 284.804 134.965 284.701 134.958C284.599 134.952 284.508 134.889 284.466 134.795C284.424 134.702 284.437 134.592 284.5 134.511C285.189 133.528 285.883 133.083 286.583 133.189C287.856 133.378 288.511 135.383 288.539 135.472C288.586 135.618 288.507 135.775 288.361 135.822L288.278 135.817Z" fill="black"/>
<path d="M248.311 123.911C248.311 123.911 246.5 122.772 246.644 124.833Z" fill="#F9769A"/>
<path d="M246.644 125.117C246.498 125.114 246.378 125.001 246.367 124.856C246.317 124.15 246.483 123.678 246.856 123.456C247.472 123.083 248.361 123.617 248.456 123.678C248.586 123.759 248.626 123.931 248.544 124.061C248.463 124.191 248.292 124.231 248.161 124.15C247.939 124.011 247.4 123.778 247.139 123.933C246.967 124.033 246.889 124.35 246.922 124.817C246.928 124.891 246.904 124.964 246.855 125.02C246.805 125.075 246.735 125.108 246.661 125.111L246.644 125.117Z" fill="black"/>
<path d="M243.1 129.561C243.1 129.561 241.844 128.922 241.672 130.267Z" fill="#F9769A"/>
<path d="M241.672 130.572H241.639C241.565 130.564 241.498 130.526 241.453 130.467C241.408 130.409 241.389 130.334 241.4 130.261C241.408 129.861 241.617 129.491 241.956 129.278C242.359 129.115 242.814 129.138 243.2 129.339C243.267 129.371 243.317 129.429 243.34 129.499C243.363 129.569 243.357 129.646 243.322 129.711C243.29 129.778 243.232 129.828 243.162 129.851C243.092 129.874 243.015 129.868 242.95 129.833C242.723 129.712 242.456 129.688 242.211 129.767C242.036 129.898 241.932 130.103 241.928 130.322C241.913 130.455 241.806 130.56 241.672 130.572Z" fill="black"/>
<path d="M241.183 136.083C241.183 136.083 240.45 136.294 240.85 137.622Z" fill="#F9769A"/>
<path d="M240.85 137.894C240.728 137.894 240.621 137.812 240.589 137.694C240.396 137.232 240.396 136.712 240.589 136.25C240.693 136.045 240.872 135.888 241.089 135.811C241.242 135.767 241.403 135.855 241.447 136.008C241.492 136.162 241.403 136.322 241.25 136.367C241.25 136.367 240.8 136.556 241.1 137.556C241.143 137.701 241.062 137.855 240.917 137.9L240.85 137.894Z" fill="black"/>
<path d="M101.789 304.067C101.789 304.067 111.789 275.255 105.383 268.311C104.752 267.616 103.844 267.237 102.906 267.276C101.968 267.314 101.095 267.767 100.522 268.511C97.9556 272.028 98.8 280.522 90.2611 280.95C79.4722 281.505 67.4222 255.394 63.3278 258.05C59.2333 260.705 72.2889 279.25 72.2889 279.25C72.2889 279.25 61.5389 263.267 59.0667 263.933C56.0722 264.744 57.6278 269.4 68.3167 283.622C68.3167 283.622 58.7889 270.05 57.3222 271.055C54.9778 272.667 60.6556 291.694 78.6611 309.661" fill="#FFEFD7"/>
<path d="M78.6889 309.939C78.6164 309.939 78.5466 309.911 78.4944 309.861C63.0278 294.444 56.1167 277.417 56.5944 272.211C56.5801 271.684 56.7998 271.178 57.1944 270.828C57.7833 270.422 59.1944 271.611 60.8611 273.456C58.0833 269.044 57.1 266.344 57.5944 264.894C57.8227 264.263 58.3642 263.798 59.0222 263.667C60.3944 263.294 63.7056 267.05 66.75 271.006C64.2278 266.617 61.8667 261.661 62.35 259.178C62.4327 258.623 62.7427 258.128 63.2056 257.811C65.1667 256.556 68.2056 260.456 72.4167 265.844C77.6722 272.583 84.2056 280.972 90.2722 280.672C96.1056 280.383 97.4222 276.194 98.5778 272.494C99.0722 270.917 99.5444 269.422 100.328 268.344C100.918 267.548 101.832 267.055 102.822 267C103.867 266.938 104.886 267.346 105.6 268.111C108.333 271.061 108.561 278.033 106.283 288.839C105.166 294.016 103.758 299.126 102.067 304.144C102.017 304.288 101.861 304.365 101.717 304.317C101.572 304.264 101.496 304.107 101.544 303.961C101.644 303.678 111.439 275.228 105.194 268.489C104.589 267.839 103.726 267.493 102.839 267.544C102.016 267.588 101.255 267.995 100.761 268.656C100.033 269.656 99.5778 271.111 99.0944 272.644C97.9444 276.322 96.5111 280.9 90.2889 281.211H89.95C83.7111 281.211 77.2111 272.878 71.9667 266.167C68.4 261.594 65.0278 257.278 63.4944 258.261C63.1601 258.495 62.9386 258.857 62.8833 259.261C62.1333 263.083 68.9222 273.706 71.5333 277.594C71.9667 278.217 72.3056 278.706 72.5333 279.061C72.615 279.188 72.5833 279.356 72.4611 279.444C72.3365 279.53 72.1661 279.501 72.0778 279.378C71.9944 279.261 71.5722 278.656 70.9667 277.711C66.7889 271.672 60.7 263.75 59.1778 264.156C58.7003 264.242 58.3036 264.573 58.1333 265.028C57.55 266.733 59.6222 270.894 64.6111 277.983C66.15 280 67.5944 282.017 68.5833 283.417C68.6693 283.541 68.6396 283.712 68.5167 283.8C68.4586 283.844 68.3854 283.863 68.3134 283.852C68.2414 283.842 68.1765 283.803 68.1333 283.744C66.6519 281.8 65.3556 280.017 64.2444 278.394C60.3556 273.35 57.95 270.967 57.5389 271.244C57.2955 271.509 57.1657 271.858 57.1778 272.217C56.7944 276.411 62.5056 293.061 78.9167 309.439C78.9945 309.518 79.0175 309.636 78.9752 309.739C78.9329 309.842 78.8334 309.91 78.7222 309.911L78.6889 309.939Z" fill="black"/>
<path d="M105.356 271.783C105.356 271.783 104.044 267.705 101.811 270.894Z" fill="#F9769A"/>
<path d="M105.356 272.044C105.235 272.045 105.129 271.965 105.094 271.85C104.933 271.361 104.356 270.061 103.583 269.944C103.111 269.878 102.594 270.244 102.039 271.056C101.948 271.172 101.782 271.198 101.661 271.113C101.539 271.029 101.505 270.864 101.583 270.739C102.272 269.756 102.972 269.311 103.667 269.411C104.933 269.606 105.594 271.633 105.622 271.7C105.67 271.846 105.59 272.002 105.444 272.05L105.356 272.044Z" fill="black"/>
<path d="M65.3556 260.117C65.3556 260.117 63.5444 259.006 63.6889 261.039Z" fill="#F9769A"/>
<path d="M63.6889 261.333C63.5438 261.334 63.4227 261.222 63.4111 261.078C63.3611 260.372 63.5278 259.9 63.9 259.678C64.5167 259.306 65.4056 259.839 65.5 259.9C65.5639 259.938 65.6096 260 65.6264 260.073C65.6431 260.145 65.6296 260.221 65.5889 260.283C65.5059 260.411 65.3364 260.451 65.2056 260.372C64.9833 260.233 64.4444 259.994 64.1833 260.156C64.0111 260.256 63.9333 260.572 63.9667 261.039C63.9712 261.113 63.9462 261.185 63.8972 261.24C63.8483 261.296 63.7793 261.329 63.7056 261.333H63.6889Z" fill="black"/>
<path d="M60.1611 265.811C60.1611 265.811 58.9056 265.172 58.7333 266.517Z" fill="#F9769A"/>
<path d="M58.7333 266.783H58.6889C58.5371 266.763 58.4303 266.624 58.45 266.472C58.4587 266.072 58.6673 265.703 59.0056 265.489C59.4112 265.326 59.8677 265.349 60.2556 265.55C60.3918 265.619 60.4464 265.786 60.3778 265.922C60.3456 265.989 60.2878 266.039 60.2176 266.062C60.1474 266.085 60.0709 266.079 60.0056 266.044C59.7785 265.923 59.5118 265.899 59.2667 265.978C59.0917 266.11 58.9872 266.314 58.9833 266.533C58.9706 266.666 58.8658 266.771 58.7333 266.783Z" fill="black"/>
<path d="M58.2444 272.339C58.2444 272.339 57.5111 272.55 57.9111 273.878Z" fill="#F9769A"/>
<path d="M57.9111 274.128C57.7883 274.126 57.6806 274.045 57.6444 273.928C57.4537 273.465 57.4537 272.946 57.6444 272.483C57.7489 272.279 57.9278 272.122 58.1444 272.045C58.2152 272.022 58.2919 272.03 58.3569 272.066C58.4219 272.101 58.4696 272.162 58.4889 272.233C58.5292 272.379 58.4486 272.53 58.3056 272.578C58.2778 272.578 57.8556 272.767 58.1556 273.767C58.1989 273.912 58.1173 274.066 57.9722 274.111L57.9111 274.128Z" fill="black"/>
<path d="M395.867 434.956C395.867 434.956 407.472 403.539 416.778 401.833C417.699 401.654 418.653 401.892 419.381 402.484C420.11 403.076 420.538 403.961 420.55 404.9C420.494 409.256 414.733 415.556 421.317 421.011C429.65 427.9 454.9 414.239 456.6 418.789C458.3 423.339 436.728 430.406 436.728 430.406C436.728 430.406 454.911 424.044 456.489 426.056C458.406 428.5 454.367 431.294 437.294 436.283C437.294 436.283 453.05 431.122 453.622 432.806C454.533 435.494 438.622 447.35 413.411 450.944" fill="#FFEFD7"/>
<path d="M413.411 451.228C413.274 451.226 413.158 451.125 413.139 450.989C413.128 450.917 413.146 450.843 413.19 450.784C413.234 450.726 413.3 450.687 413.372 450.678C436.311 447.4 450.861 437.483 453.061 433.9C453.286 433.618 453.392 433.259 453.356 432.9C453.183 432.383 449.467 433 443.633 434.639C441.759 435.246 439.672 435.885 437.372 436.556C437.219 436.602 437.057 436.514 437.011 436.361C436.965 436.208 437.052 436.046 437.206 436C438.833 435.444 441.2 434.717 443.639 434.022C451.878 431.339 456.033 429.244 456.583 427.528C456.722 427.063 456.603 426.56 456.272 426.205C455.3 424.967 445.672 427.667 438.711 430C437.65 430.372 436.95 430.606 436.817 430.65C436.671 430.694 436.517 430.616 436.467 430.472C436.419 430.328 436.495 430.172 436.639 430.122L438.306 429.567C442.75 428.005 454.528 423.567 456.217 420.056C456.42 419.699 456.46 419.272 456.328 418.883C455.694 417.183 450.411 418.622 444.811 420.144C436.439 422.428 426.022 425.267 421.128 421.217C416.333 417.244 417.928 412.722 419.206 409.083C419.761 407.567 420.244 406.128 420.261 404.889C420.264 404.064 419.899 403.28 419.267 402.75C418.588 402.178 417.689 401.94 416.817 402.1C407.772 403.767 396.228 434.733 396.111 435.044C396.047 435.17 395.898 435.228 395.766 435.178C395.634 435.128 395.56 434.987 395.594 434.85C395.594 434.772 398.544 426.889 402.572 418.906C408.006 408.117 412.767 402.278 416.711 401.556C417.754 401.36 418.828 401.648 419.633 402.339C420.398 402.973 420.837 403.918 420.828 404.911C420.828 406.239 420.272 407.689 419.717 409.283C418.433 412.933 416.978 417.061 421.472 420.8C426.139 424.689 436.406 421.867 444.656 419.622C451.256 417.822 456.022 416.522 456.839 418.7C457.02 419.23 456.972 419.812 456.706 420.306C455.594 422.589 450.75 425.144 446.106 427.144C450.906 425.8 455.811 424.778 456.661 425.894C457.11 426.394 457.266 427.091 457.072 427.733C456.6 429.189 454.178 430.756 449.328 432.633C451.767 432.156 453.606 432.078 453.839 432.728C453.941 433.244 453.813 433.78 453.489 434.194C450.756 438.639 435.022 448.144 413.406 451.233L413.411 451.228Z" fill="black"/>
<path d="M414.744 404.628C414.744 404.628 418.233 402.144 418.117 406.039Z" fill="#F9769A"/>
<path d="M418.133 406.317C417.981 406.311 417.861 406.186 417.861 406.033C417.894 405.061 417.7 404.456 417.306 404.233C416.617 403.861 415.378 404.556 414.956 404.85C414.831 404.938 414.659 404.911 414.567 404.789C414.524 404.729 414.506 404.654 414.519 404.581C414.531 404.508 414.573 404.443 414.633 404.4C414.706 404.35 416.439 403.133 417.567 403.739C418.183 404.072 418.478 404.85 418.439 406.05C418.438 406.127 418.404 406.201 418.346 406.252C418.287 406.303 418.21 406.326 418.133 406.317Z" fill="black"/>
<path d="M453.717 419.244C453.717 419.244 455.844 419.417 454.494 420.983Z" fill="#F9769A"/>
<path d="M454.494 421.261C454.428 421.262 454.364 421.236 454.317 421.189C454.261 421.142 454.226 421.074 454.221 421C454.216 420.927 454.24 420.855 454.289 420.8C454.594 420.444 454.717 420.144 454.644 419.961C454.528 419.678 453.95 419.544 453.689 419.522C453.539 419.505 453.429 419.373 453.439 419.222C453.445 419.148 453.479 419.08 453.536 419.032C453.592 418.984 453.665 418.961 453.739 418.967C453.856 418.967 454.883 419.078 455.156 419.75C455.322 420.15 455.156 420.628 454.706 421.161C454.654 421.224 454.576 421.261 454.494 421.261Z" fill="black"/>
<path d="M454.489 426.911C454.489 426.911 455.878 427.15 455.206 428.333Z" fill="#F9769A"/>
<path d="M455.206 428.611C455.159 428.609 455.113 428.596 455.072 428.572C454.939 428.497 454.892 428.328 454.967 428.195C455.1 428.016 455.141 427.786 455.078 427.572C454.927 427.363 454.699 427.223 454.444 427.183C454.294 427.155 454.193 427.012 454.217 426.861C454.245 426.711 454.389 426.612 454.539 426.639C454.971 426.704 455.352 426.959 455.578 427.333C455.721 427.702 455.673 428.118 455.45 428.445C455.406 428.542 455.312 428.606 455.206 428.611Z" fill="black"/>
<path d="M452.133 433.261C452.133 433.261 452.589 433.872 451.478 434.694Z" fill="#F9769A"/>
<path d="M451.467 434.972C451.378 434.972 451.295 434.928 451.244 434.856C451.2 434.797 451.181 434.723 451.192 434.65C451.202 434.577 451.241 434.511 451.3 434.467C452.156 433.839 451.906 433.439 451.894 433.422C451.812 433.297 451.841 433.129 451.961 433.039C452.084 432.954 452.251 432.978 452.344 433.094C452.471 433.288 452.52 433.522 452.483 433.75C452.363 434.236 452.055 434.655 451.628 434.917C451.581 434.951 451.525 434.97 451.467 434.972Z" fill="black"/>
<path d="M128.356 829.622L139.506 830.683C141.853 830.918 144.166 829.985 145.694 828.189L145.767 828.105C148.139 825.244 149.394 818.355 149.394 818.355" fill="#362B6E"/>
<path d="M140.206 830.994C139.961 830.994 139.722 830.994 139.478 830.961L128.328 829.894C128.254 829.889 128.186 829.854 128.139 829.797C128.092 829.741 128.07 829.668 128.078 829.594C128.092 829.443 128.226 829.332 128.378 829.344L139.533 830.405C141.789 830.629 144.011 829.735 145.483 828.011L145.539 827.95C147.856 825.172 149.111 818.372 149.122 818.306C149.15 818.156 149.294 818.056 149.444 818.083C149.518 818.096 149.583 818.136 149.625 818.197C149.668 818.257 149.685 818.333 149.672 818.405C149.617 818.689 148.372 825.4 145.983 828.283L145.911 828.372C144.488 830.044 142.401 831.003 140.206 830.994Z" fill="black"/>
<path d="M128.356 829.622C128.356 829.622 115.172 827.844 105.183 782.844C95.1944 737.844 105.006 702.989 128.517 726.844C152.028 750.7 152.511 833.167 128.356 829.622Z" fill="white"/>
<path d="M129.8 830.006C129.298 830.007 128.796 829.97 128.3 829.894C127.744 829.817 114.806 827.55 104.894 782.9C98.0222 751.939 100.45 725.433 110.644 719.889C115.489 717.25 121.722 719.589 128.678 726.65C137.194 735.306 143.4 752.278 145.694 773.211C147.839 792.8 145.956 811.3 140.783 821.5C137.961 827.094 134.189 830.006 129.8 830.006ZM114.8 719.394C113.441 719.387 112.103 719.725 110.911 720.378C100.911 725.806 98.6222 752.044 105.444 782.783C115.25 826.956 128.25 829.328 128.378 829.344C133.2 830.056 137.206 827.328 140.283 821.25C145.417 811.139 147.272 792.756 145.139 773.272C142.917 752.761 136.589 735.494 128.278 727.039C123.311 721.978 118.733 719.394 114.8 719.394Z" fill="black"/>
<path d="M352.022 136.372C352.022 136.372 356.322 137.278 363.344 143.333Z" fill="#329DFD"/>
<path d="M363.361 143.611C363.294 143.611 363.229 143.587 363.178 143.544C356.289 137.605 352.028 136.655 351.983 136.644C351.911 136.63 351.848 136.587 351.807 136.525C351.766 136.464 351.752 136.389 351.767 136.317C351.803 136.167 351.949 136.072 352.1 136.1C352.278 136.139 356.544 137.094 363.544 143.122C363.633 143.198 363.665 143.321 363.624 143.431C363.583 143.54 363.478 143.612 363.361 143.611Z" fill="black"/>
</svg>
