<svg width="285" height="277" viewBox="0 0 285 277" fill="none" xmlns="http://www.w3.org/2000/svg">
<path d="M142.5 30.47C203.775 30.47 253.65 78.945 253.65 138.5C253.65 198.055 203.775 246.53 142.5 246.53C81.225 246.53 31.35 198.055 31.35 138.5C31.35 78.945 81.225 30.47 142.5 30.47ZM142.5 0C63.8115 0 0 62.0203 0 138.5C0 214.98 63.8115 277 142.5 277C221.188 277 285 214.98 285 138.5C285 62.0203 221.188 0 142.5 0Z" fill="#FFF616"/>
<path d="M206.6 82H179.4C177.522 82 176 83.2515 176 84.7955V202.205C176 203.748 177.522 205 179.4 205H206.6C208.478 205 210 203.748 210 202.205V84.7955C210 83.2515 208.478 82 206.6 82Z" fill="#FFF616"/>
<path d="M105.6 82H78.4C76.5222 82 75 83.2515 75 84.7955V202.205C75 203.748 76.5222 205 78.4 205H105.6C107.478 205 109 203.748 109 202.205V84.7955C109 83.2515 107.478 82 105.6 82Z" fill="#FFF616"/>
<path d="M176.192 54H108.808C107.257 54 106 55.4326 106 57.2V82.8C106 84.5674 107.257 86 108.808 86H176.192C177.743 86 179 84.5674 179 82.8V57.2C179 55.4326 177.743 54 176.192 54Z" fill="#FFF616"/>
<path d="M176.192 131H108.808C107.257 131 106 132.388 106 134.1V158.9C106 160.612 107.257 162 108.808 162H176.192C177.743 162 179 160.612 179 158.9V134.1C179 132.388 177.743 131 176.192 131Z" fill="#FFF616"/>
</svg>
