<svg width="141" height="138" viewBox="0 0 141 138" fill="none" xmlns="http://www.w3.org/2000/svg">
<path d="M70.5 15.18C100.815 15.18 125.49 39.33 125.49 69C125.49 98.67 100.815 122.82 70.5 122.82C40.185 122.82 15.51 98.67 15.51 69C15.51 39.33 40.185 15.18 70.5 15.18ZM70.5 0C31.5699 0 0 30.8982 0 69C0 107.102 31.5699 138 70.5 138C109.43 138 141 107.102 141 69C141 30.8982 109.43 0 70.5 0Z" fill="#376DED"/>
<path d="M102.3 41H88.7C87.7611 41 87 41.6207 87 42.3864V100.614C87 101.379 87.7611 102 88.7 102H102.3C103.239 102 104 101.379 104 100.614V42.3864C104 41.6207 103.239 41 102.3 41Z" fill="#376DED"/>
<path d="M52.3 41H38.7C37.7611 41 37 41.6207 37 42.3864V100.614C37 101.379 37.7611 102 38.7 102H52.3C53.2389 102 54 101.379 54 100.614V42.3864C54 41.6207 53.2389 41 52.3 41Z" fill="#376DED"/>
<path d="M87.5769 27H53.4231C52.6371 27 52 27.7163 52 28.6V41.4C52 42.2837 52.6371 43 53.4231 43H87.5769C88.3629 43 89 42.2837 89 41.4V28.6C89 27.7163 88.3629 27 87.5769 27Z" fill="#376DED"/>
<path d="M87.5769 65H53.4231C52.6371 65 52 65.7163 52 66.6V79.4C52 80.2837 52.6371 81 53.4231 81H87.5769C88.3629 81 89 80.2837 89 79.4V66.6C89 65.7163 88.3629 65 87.5769 65Z" fill="#376DED"/>
</svg>
